<?xml version="1.0" standalone="no"?>
<!DOCTYPE svg PUBLIC "-//W3C//DTD SVG 1.1//EN" "http://www.w3.org/Graphics/SVG/1.1/DTD/svg11.dtd">
<svg xmlns="http://www.w3.org/2000/svg">
<metadata>Copyright (C) 2023 by original authors @ fontello.com</metadata>
<defs>
<font id="fontello" horiz-adv-x="1000" >
<font-face font-family="fontello" font-weight="400" font-stretch="normal" units-per-em="1000" ascent="850" descent="-150" />
<missing-glyph horiz-adv-x="1000" />
<glyph glyph-name="left" unicode="&#xe800;" d="M0 353l390 391q19 18 44 18 25 0 43-18t18-44-18-43l-243-243h642q25 0 43-18t18-43-18-43-43-18h-642l243-243q18-18 18-44t-18-43-43-18-44 18z" horiz-adv-x="938" />

<glyph glyph-name="bag-2" unicode="&#xe801;" d="M684 580h9c112 0 203-93 203-208v-230c0-115-91-209-203-209h-386c-112 0-203 94-203 209v230c0 115 91 208 203 208h9c1 50 20 97 54 132 35 36 80 53 130 55 101 0 183-84 184-187z m-271 88c-23-24-35-55-36-88h246c-1 69-55 124-123 124-31 0-63-13-87-36z m241-248c18 0 31 14 31 31v49c0 17-13 31-31 31-16 0-30-14-30-31v-49c0-17 14-31 30-31z m-282 31c0-17-13-31-30-31-17 0-31 14-31 31v49c0 17 14 31 31 31 17 0 30-14 30-31v-49z" horiz-adv-x="1000" />

<glyph glyph-name="bag" unicode="&#xe802;" d="M705 558c2 3 2 7 2 10h1c-4 111-96 199-208 199-111 0-203-88-208-199 0-3 0-7 0-10h-3c-54 0-111-35-127-130l-33-258c-26-189 71-237 199-237h345c127 0 222 69 198 237l-32 258c-19 92-74 130-127 130h-7z m-59 0c-2 3-2 7-2 10 0 80-65 144-145 144-81 0-146-64-146-144 1-3 1-7 0-10h293z m-267-214c-20 0-37 17-37 38 0 21 17 38 37 38 20 0 37-17 37-38 0-21-17-38-37-38z m204 38c0-21 17-38 37-38 21 0 37 17 37 38 0 21-16 38-37 38-20 0-37-17-37-38z" horiz-adv-x="1000" />

<glyph glyph-name="bookmark" unicode="&#xe803;" d="M371 767h257c113 0 204-45 205-158v-633c0-7-1-14-5-20-5-10-14-18-25-21-11-3-23-2-33 4l-270 135-271-135c-6-3-13-5-20-5-24 0-42 19-42 42v633c0 113 91 158 204 158z m-28-318h313c18 0 33 15 33 33 0 18-15 33-33 33h-313c-18 0-33-15-33-33 0-18 15-33 33-33z" horiz-adv-x="1000" />

<glyph glyph-name="buy" unicode="&#xe804;" d="M588 382h116c17 0 31 14 31 32 0 18-14 32-31 32h-116c-17 0-31-14-31-32 0-18 14-32 31-32z m253 221c25 0 42-9 58-28 17-20 20-48 16-74l-39-278c-8-54-53-94-106-94h-454c-55 0-101 44-106 100l-38 463-63 11c-16 3-28 20-25 37 3 17 19 29 36 26l99-15c15-3 25-14 26-29l8-95c1-14 12-24 25-24h563z m-532-541c-34 0-63-29-63-65 0-35 29-64 63-64 35 0 63 29 63 64 0 36-28 65-63 65z m469 0c-35 0-63-29-63-65 0-35 28-64 63-64 34 0 63 29 63 64 0 36-29 65-63 65z" horiz-adv-x="1000" />

<glyph glyph-name="calendar" unicode="&#xe805;" d="M684 775l0-33c115-9 190-92 191-218l0-368c0-137-82-222-214-222l-321-1c-131 0-214 87-214 224l-1 365c0 126 73 208 188 219l0 33c0 19 13 34 31 34 19 0 32-14 32-34l0-30 245 0-1 31c0 19 14 33 32 33 18 0 32-14 32-33z m-496-267l623 1v15c-1 94-46 144-127 151l0-34c0-18-14-33-32-33-18 0-31 14-31 33l0 36-245-1 0-35c0-19-13-34-31-34-18 0-32 15-32 34l0 34c-80-9-125-58-125-153l0-14z m447-199v0c0-20 16-35 35-35 19 1 33 17 33 37-1 20-16 35-34 35-19 0-34-16-34-37z m34-196c-19 1-34 17-34 37-1 20 15 37 33 37h1c19 0 35-16 35-37 0-20-16-37-35-37z m-203 196c0-20 16-36 35-35 18 1 33 17 32 37 0 20-15 35-34 35-19 0-33-17-33-37z m35-194c-19-1-34 15-35 35 0 20 14 37 33 38 19 0 34-16 35-35 0-20-14-37-33-38z m-205 192c1-20 17-36 35-35 19 1 34 18 33 38-1 20-16 35-34 35-19-1-34-18-34-38z m36-192c-19-1-35 15-36 35 0 20 15 37 34 37 18 0 34-15 34-34 1-21-14-37-32-38z" horiz-adv-x="1000" />

<glyph glyph-name="call-missed" unicode="&#xe806;" d="M806 603l100 101c7 7 11 16 11 26 0 10-4 19-11 26-14 14-38 14-52 0l-100-100-100 100c-14 14-39 14-52 0-7-7-11-16-11-26 0-10 4-19 11-26l100-101-100-100c-7-7-11-16-11-26 0-10 4-19 11-26 13-14 38-14 52 0l100 100 100-100c7-7 16-11 26-11 10 0 19 4 26 11 7 7 11 16 11 26 0 10-4 19-11 26l-100 100z m-346-293c166-167 204 26 309-80 102-102 161-123 32-252-16-13-119-169-481 192-361 362-205 465-192 481 130 129 150 70 252-32 106-105-87-143 80-309z" horiz-adv-x="1000" />

<glyph glyph-name="call" unicode="&#xe807;" d="M481 330c166-166 203 26 309-79 102-102 161-123 32-252-17-13-119-170-481 192-362 361-205 464-192 481 130 129 150 70 252-32 105-106-87-143 80-310z" horiz-adv-x="1000" />

<glyph glyph-name="call-silent" unicode="&#xe807;" d="M891 689v0c13 15 13 37 0 51-7 7-16 12-26 12-9 0-18-5-24-12l-749-767c-1-2-2-3-3-4l-1-2c-8-13-6-32 6-44 7-7 16-11 25-11 9 0 18 4 25 11l223 229c308-302 412-191 436-165 1 1 3 3 4 4 111 113 80 143 3 217l0 0c-10 11-22 22-34 34-46 47-79 35-116 22-40-14-85-30-156 28l-22-22 16 17 393 402z m-633-431c-250 283-151 381-126 405 1 2 3 3 4 4 112 114 141 83 214 5 10-11 21-23 34-36 46-47 34-81 22-118-11-31-23-65-2-112l-146-148z" horiz-adv-x="1000" />

<glyph glyph-name="calling" unicode="&#xe808;" d="M601 621c-20 4-38-9-42-28-4-19 9-38 28-42 58-11 103-56 115-115v0c3-17 18-29 35-29 2 0 4 0 6 1 20 4 32 23 29 42-17 87-84 154-171 171z m-3 145c-9 2-18-1-26-7-7-6-12-15-13-24-2-20 12-38 31-40 135-15 240-120 255-256 3-18 18-31 36-31 1 0 3 0 4 0 9 1 18 6 24 13 6 7 9 17 7 26-18 169-149 301-318 319z m-138-456c166-167 204 26 309-80 102-102 161-123 32-252-16-13-119-169-481 192-361 362-205 465-192 481 130 129 150 70 252-32 106-105-87-143 80-309z" horiz-adv-x="1000" />

<glyph glyph-name="camera" unicode="&#xe809;" d="M727 590c1-3 4-5 8-5 100 0 182-81 182-181v-247c0-100-82-182-182-182h-470c-100 0-182 82-182 182v247c0 100 82 181 182 181 3 0 7 2 8 5l2 5c2 3 3 6 5 9 11 23 22 48 30 62 19 38 51 59 92 59h196c40 0 73-21 92-59 7-13 17-34 27-54 2-4 4-9 6-13l4-9z m-31-160c0-20 17-37 38-37 21 0 38 17 38 37 0 21-17 38-38 38-21 0-38-17-38-38z m-268-64c20 19 45 30 72 30 27 0 53-11 72-30 19-19 29-44 29-71 0-56-45-101-101-101-27 0-52 10-72 29-19 19-29 45-29 72v0c-1 26 10 52 29 71z m187-187c-29-30-70-48-115-48-44 0-85 17-116 48-31 31-48 72-48 116 0 43 17 84 48 115 31 31 72 48 116 48 44 0 85-17 116-48 31-31 48-72 48-115-1-46-19-86-49-116z" horiz-adv-x="1000" />

<glyph glyph-name="category" unicode="&#xe80a;" d="M189 767h141c59 0 106-48 106-107v-142c0-59-47-107-106-107h-141c-58 0-106 48-106 107v142c0 59 48 107 106 107z m0-478h141c59 0 106-48 106-107v-142c0-59-47-107-106-107h-141c-58 0-106 48-106 107v142c0 59 48 107 106 107z m622 478h-141c-59 0-106-48-106-107v-142c0-59 47-107 106-107h141c58 0 106 48 106 107v142c0 59-48 107-106 107z m-141-478h141c58 0 106-48 106-107v-142c0-59-48-107-106-107h-141c-59 0-106 48-106 107v142c0 59 47 107 106 107z" horiz-adv-x="1000" />

<glyph glyph-name="chart" unicode="&#xe80b;" d="M305 767h390c141 0 221-81 222-222v-390c0-141-81-222-222-222h-390c-141 0-222 81-222 222v390c0 141 81 222 222 222z m197-661c18 0 33 13 35 31v425c1 13-5 26-16 33-12 7-26 7-37 0-11-7-18-20-16-33v-425c2-18 17-31 34-31z m192 0c17 0 32 13 34 31v137c2 13-5 26-16 33-11 7-25 7-37 0-11-7-17-20-16-33v-137c2-18 17-31 35-31z m-351 31c-2-18-17-31-35-31-18 0-33 13-35 31v288c-1 13 5 26 17 33 11 7 25 7 36 0 12-7 18-20 17-33v-288z" horiz-adv-x="1000" />

<glyph glyph-name="chat" unicode="&#xe80c;" d="M83 349c0 220 176 418 418 418 237 0 416-194 416-416 0-258-210-418-417-418-68 0-144 19-205 55-21 13-39 22-62 15l-84-25c-21-7-41 10-34 32l28 94c4 13 3 26-3 37-36 66-57 138-57 208z m363 0c0-29 24-53 53-53 30 0 54 24 54 53 0 30-24 53-54 53-29 1-53-23-53-53z m192 0c0-29 24-53 53-53 30 0 54 24 54 53 0 30-24 53-54 53-29 0-53-23-53-53z m-331-53c-29 0-53 24-53 53 0 30 24 53 53 53 30 0 53-23 53-53 0-29-23-53-53-53z" horiz-adv-x="1000" />

<glyph glyph-name="close-square" unicode="&#xe80d;" d="M320 767h361c141 0 236-99 236-247v-340c0-147-95-247-236-247h-361c-142 0-237 100-237 247v340c0 148 95 247 237 247z m305-542c15 14 15 37 0 51l-74 74 74 75c15 14 15 37 0 51-14 14-37 14-51 0l-74-74-74 74c-15 14-38 14-52 0-14-14-14-37 0-51l74-75-74-73c-14-15-14-38 0-52 7-7 17-11 26-11 10 0 19 4 26 11l74 74 74-74c7-7 16-11 26-11 9 0 18 4 25 11z" horiz-adv-x="1000" />

<glyph glyph-name="danger" unicode="&#xe80e;" d="M603 665l303-526c7-15 10-28 11-41 1-31-10-61-31-85-21-23-50-36-81-38h-610c-13 1-26 4-38 8-60 25-89 93-65 153l305 529c10 19 26 35 46 45 57 32 129 11 160-45z m-67-346c0-20-16-37-36-37-20 0-37 17-37 37v116c0 20 17 36 37 36 20 0 36-16 36-36v-116z m-36-178c-20 0-37 17-37 36 0 20 17 37 37 37 20 0 36-16 36-36 0-20-16-37-36-37z" horiz-adv-x="1000" />

<glyph glyph-name="delete" unicode="&#xe80f;" d="M845 632c17 0 30-14 30-31v-16c0-17-13-30-30-30h-690c-16 0-30 13-30 30v16c0 17 14 31 30 31h121c25 0 46 17 52 42l6 28c10 39 43 65 80 65h172c37 0 70-26 79-63l7-30c6-25 27-42 52-42h121z m-61-579c12 118 35 399 35 402 0 8-2 16-8 23-6 6-14 10-22 10h-578c-8 0-16-4-22-10-5-7-8-15-8-23 1-1 1-11 3-27 6-74 22-278 33-375 7-72 54-116 122-118 52-1 106-2 161-2 52 0 105 1 159 2 70 1 117 45 125 118z" horiz-adv-x="1000" />

<glyph glyph-name="discount" unicode="&#xe810;" d="M850 469l30-30c24-23 37-55 37-88 0-34-13-65-36-89 0 0-1-1-1-1 0 0 0 0 0 0l-30-30c-12-12-18-27-18-44v-43c0-69-57-125-126-125h-43c-16 0-32-7-44-19l-30-30c-25-25-57-37-89-37-32 0-64 12-88 37l-31 30c-12 12-27 19-44 19h-43c-69 0-125 56-125 125v43c0 17-7 32-19 44l-30 30c-49 49-49 128 0 178l30 30c12 12 19 27 19 45v42c0 69 56 125 125 125h43c17 0 32 7 44 19l30 30c49 49 128 49 178 0l30-30c12-12 28-19 44-19h43c69 0 126-56 126-125v-43c0-17 6-32 18-44z m-457-263c10 0 19 4 26 11l214 214c14 15 14 38 0 52-14 14-37 14-51 0l-215-214c-14-14-14-38 0-52 7-7 16-11 26-11z m178 37c0-20 16-37 36-37 20 0 37 17 37 37 0 20-17 36-37 36-20 0-36-16-36-36z m-178 251c20 0 36-17 36-37 0-20-16-36-36-36-20 0-37 16-37 36 0 20 17 37 37 37z" horiz-adv-x="1000" />

<glyph glyph-name="discovery" unicode="&#xe811;" d="M83 350c0 230 187 417 417 417 230 0 417-187 417-417 0-230-187-417-417-417-230 0-417 187-417 417z m510-76l67 213c5 15-8 28-23 24l-213-67c-9-3-16-9-19-18l-66-214c-5-14 9-28 23-23l213 66c8 3 15 10 18 19z" horiz-adv-x="1000" />

<glyph glyph-name="document" unicode="&#xe812;" d="M325 767h350c128 0 200-74 200-202v-430c0-129-72-202-200-202h-350c-126 0-200 73-200 202v430c0 128 74 202 200 202z m12-194v0h124c18 0 33-15 33-32 0-19-15-33-33-33h-124c-18 0-33 14-33 32 0 18 15 33 33 33z m0-254h326c18 0 33 15 33 33 0 18-15 32-33 32h-326c-18 0-33-14-33-32 0-18 15-33 33-33z m0-190h326c17 1 30 16 30 32 0 17-13 32-30 33h-326c-13 1-25-4-32-15-6-11-6-24 0-35 7-11 19-17 32-15z" horiz-adv-x="1000" />

<glyph glyph-name="download" unicode="&#xe813;" d="M468 546v167c0 18 14 33 32 33 16 0 30-13 32-28l0-5v-167l199 0c99 0 181-81 186-182l0-9v-210c0-102-79-186-177-191l-8 0h-464c-99 0-180 81-184 183l-1 9 0 209c0 102 79 186 176 191l9 0h200v-266l-67 68c-12 13-33 13-45 0-6-6-9-15-9-23 0-7 2-14 6-19l3-5 121-125c6-7 14-10 23-10 7 0 14 2 19 7l4 3 121 125c12 13 12 34 0 47-12 12-29 13-42 4l-4-4-66-68v266l-64 0z" horiz-adv-x="1000" />

<glyph glyph-name="edit-square" unicode="&#xe814;" d="M694 766c60 4 119-17 164-58 41-44 62-103 58-164v-388c4-61-17-120-58-164-44-41-104-62-164-58h-388c-61-4-120 17-164 58-41 44-62 103-58 164v388c-4 61 17 120 58 164 44 41 103 62 164 58h388z m-236-618l280 281c25 26 25 68 0 93l-54 54c-26 26-68 26-94 0l-28-28c-4-4-4-11 0-16 0 0 67-65 68-67 5-5 7-12 7-19 0-15-12-28-27-28-7 0-14 3-18 8l-70 69c-3 3-9 3-12 0l-199-199c-14-13-22-32-22-51l-2-99c0-5 1-10 5-14 4-4 9-6 14-6h98c20 0 39 8 54 22z" horiz-adv-x="1000" />

<glyph glyph-name="edit" unicode="&#xe815;" d="M391 16l366 473c20 26 27 55 20 85-6 27-22 53-48 73l-61 49c-54 42-120 38-158-11l-41-53c-5-7-4-17 3-22 0 0 104-83 106-85 7-7 12-16 13-27 3-21-12-40-34-43-10-1-19 2-27 8l-109 86c-5 4-13 4-17-2l-260-336c-17-21-23-48-17-75l33-143c2-8 9-13 17-13l146 1c26 1 51 13 68 35z m204 44h238c23 0 42-19 42-42 0-24-19-43-42-43h-238c-23 0-42 19-42 43 0 23 19 42 42 42z" horiz-adv-x="1000" />

<glyph glyph-name="filter-2" unicode="&#xe816;" d="M172 767h656c49 0 89-41 89-92v-63c0-25-10-48-27-66l-271-274c-5-5-11-7-17-7l-227 1c-7 0-14 3-19 8l-249 274c-15 17-24 39-24 62v65c0 51 40 92 89 92z m215-576l202-1c13 0 23-11 23-23v-114c0-13-8-25-19-30l-184-87c-4-2-9-3-13-3-6 0-12 2-17 6-10 6-15 16-15 27v201c0 13 10 24 23 24z" horiz-adv-x="1000" />

<glyph glyph-name="filter" unicode="&#xe817;" d="M370 584c0-78-64-141-143-141-79 0-144 63-144 141 0 78 65 141 144 141 79 0 143-63 143-141z m484 62c35 0 63-28 63-62 0-34-28-61-63-61h-274c-35 0-63 27-63 61 0 34 28 62 63 62h274z m-708-461h274c35 0 63-28 63-62 0-34-28-61-63-61h-274c-34 0-63 27-63 61 0 34 29 62 63 62z m627-201c80 0 144 63 144 141 0 78-64 141-144 141-79 0-143-63-143-141 0-78 64-141 143-141z" horiz-adv-x="1000" />

<glyph glyph-name="folder" unicode="&#xe818;" d="M560 647h128c154 0 229-82 229-251v-203c0-160-99-260-261-260h-313c-160 0-260 100-260 261v313c0 172 77 260 228 260h66c39 0 75-18 99-48l37-49c11-15 29-23 47-23z m-253-434h386c17 0 31 14 31 31 0 18-14 31-31 31h-386c-17 0-31-13-31-31 0-17 14-31 31-31z" horiz-adv-x="1000" />

<glyph glyph-name="game" unicode="&#xe819;" d="M632 597c13-1 26-1 39-1 142 0 246-101 246-241v-179c0-140-104-241-246-241-56-1-113-2-171-2-57 0-114 1-171 2-142 0-246 101-246 241v179c0 140 104 241 246 241 54 1 108 2 164 2v7c0 27-23 50-51 50h-40c-47 0-84 37-84 82 0 16 14 30 30 30 18 0 31-14 31-30 0-12 10-22 23-22h40c62 0 112-50 112-110v-8c26 0 52 0 78 0z m-180-361h-43v-43c0-16-14-30-30-30-18 0-31 14-31 30v43h-43c-17 0-31 13-31 30 0 16 14 30 31 30h43v42c0 16 13 30 31 30 16 0 30-14 30-30v-42h43c17 0 31-14 31-30 0-17-14-30-31-30z m174 67h4c17 0 31 14 31 31 0 16-14 30-31 30h-4c-17 0-31-14-31-30 0-17 14-31 31-31z m70-138h4c17 0 31 14 31 31 0 16-14 30-31 30h-4c-17 0-31-14-31-30 0-17 14-31 31-31z" horiz-adv-x="1000" />

<glyph glyph-name="graph" unicode="&#xe81a;" d="M514 758c6 6 15 9 24 9 191-6 350-144 379-329 0-1 0-2 0-3 0-9-3-18-9-24-6-7-14-11-23-12l-320-21c-10-1-21 3-29 10-7 7-12 17-12 27l-21 315v5c0 9 4 17 11 23z m-22-462l276 17h3c12 0 23-5 31-13 9-9 13-20 13-32-11-159-128-292-287-326-158-35-321 38-399 178-23 41-38 85-43 131-2 14-3 27-3 41 1 169 122 316 290 351 21 4 41-6 50-24 4-7 6-15 6-23 3-45 6-89 9-133 3-38 5-76 8-114 0-9 1-18 4-27 7-16 23-27 42-26z" horiz-adv-x="1000" />

<glyph glyph-name="heart" unicode="&#xe81b;" d="M660 746c27 0 53-4 78-12 154-50 209-219 163-366-26-76-69-145-125-201-81-78-169-147-264-207l-11-6-11 7c-95 59-184 128-265 207-56 56-99 124-125 200-47 147 8 316 163 367 12 4 25 7 37 8h5c12 2 24 3 35 3h5c26-1 52-6 76-14h3c1-1 3-2 4-2 9-3 17-7 26-11l16-7c3-2 8-5 11-8 3-2 5-3 7-4 0-1 1-1 2-2 3-2 7-4 10-6 46 35 103 54 160 54z m111-300c17 0 32 14 33 32v5c1 58-34 111-88 131-17 6-36-3-42-21-6-17 4-36 21-43 27-10 45-36 45-65v-1c-1-10 2-19 8-26 5-7 14-11 23-12z" horiz-adv-x="1000" />

<glyph glyph-name="hide" unicode="&#xe81c;" d="M409 215c26-18 57-29 91-29 89 0 162 74 162 164 0 34-10 66-28 92l-44-45c7-13 11-30 11-47 0-56-45-102-101-102-17 0-33 4-47 11l-44-44z m359 362c59-54 109-127 146-215 4-8 4-17 0-24-87-204-242-327-414-327h0c-79 0-154 26-220 73l-79-79c-6-6-14-9-22-9-8 0-16 3-21 9-10 10-12 27-4 38l1 2 602 607c0 1 1 1 2 2l0 0c0 1 1 2 2 3l38 38c12 12 31 12 43 0 12-12 12-31 0-43l-74-75z m-431-227c0-11 2-22 3-31l-150-152c-41 47-76 105-104 171-3 7-3 16 0 24 87 204 242 326 414 326h0c58 0 115-14 167-40l-136-137c-10 2-20 3-31 3-90 0-163-74-163-164z" horiz-adv-x="1000" />

<glyph glyph-name="home" unicode="&#xe81d;" d="M381-16v128c0 32 26 59 59 59h120c15 0 31-6 42-17 11-12 17-26 17-42v-128c0-13 5-26 15-36 9-9 23-15 36-15h82c38 0 75 15 102 42 27 27 42 63 42 101v363c0 31-14 60-37 79l-278 221c-49 38-118 37-165-3l-271-218c-25-19-40-48-41-79v-363c0-79 65-143 144-143h80c28 0 51 23 52 51l1 0z" horiz-adv-x="1000" />

<glyph glyph-name="image-2" unicode="&#xe81e;" d="M318 709c-107 0-176-74-176-188v-342c0-32 5-60 16-85 0 1 10 12 22 27 24 30 60 73 60 73 29 33 83 82 154 53 16-7 29-16 42-24 1 0 3-1 4-2 24-16 38-24 52-22 6 1 12 2 17 6 21 12 73 87 89 109 2 3 4 5 4 6 46 59 116 75 174 40 8-5 64-44 83-60v221c0 114-70 188-178 188h-363z m363 58c141 0 236-99 236-246v-342c0-4-1-7-1-11 0-2-1-4-1-7 0-1 0-3 0-4 0-2 0-4 0-7 0 0 0-1-1-2 0-1 0-1 0-2-1-13-4-26-6-38-1-3-2-6-3-9l0 0c-3-12-7-23-12-34-1-2-2-4-3-5 0-2-1-3-1-4-5-10-11-20-17-29-1-2-3-3-4-5-1-1-2-2-2-3-7-9-14-17-22-24-1-2-3-3-5-5-1 0-2-1-3-2-8-7-16-14-25-19-2-2-4-3-6-4-2 0-3-1-4-2-9-5-19-10-29-14-2 0-5-1-8-2-1 0-3-1-5-1-1-1-2-1-3-1-9-3-18-6-28-7-5-1-11-2-17-2-3 0-5-1-8-1-3 0-5 0-8-1-4 0-9-1-14-1h-363c-15 0-30 2-45 4 0 0-1 0-1 0-57 10-104 37-136 79-1 0-1 0-1 0 0 0 0 0 0 0-33 42-52 98-52 163v342c0 147 95 246 235 246h363z m-223-272c0-56-47-103-104-103-49 0-92 36-101 83-2 7-3 15-3 22 0 57 46 103 103 103 29 0 56-12 75-32 19-18 30-44 30-73z" horiz-adv-x="1000" />

<glyph glyph-name="image" unicode="&#xe81f;" d="M319-67h362c141 0 236 99 236 247v340c0 148-95 247-236 247h-362c-141 0-236-99-236-247v-340c0-148 95-247 236-247z m35 459c-57 0-104 46-104 104 0 57 47 104 104 104 58 0 104-47 104-104 0-58-46-104-104-104z m472-164c14-36 7-79-8-114-18-43-52-74-94-88-19-7-39-9-59-9h-351c-35 0-66 8-91 24-16 10-19 32-7 47 19 24 39 49 58 74 38 47 63 61 91 49 11-5 23-13 34-21 32-21 75-50 132-18 39 22 62 59 82 92l0 1c2 2 3 4 4 7 7 11 14 21 21 31 9 13 44 52 89 24 28-17 52-41 78-67 9-9 16-20 21-32z" horiz-adv-x="1000" />

<glyph glyph-name="info-circle" unicode="&#xe820;" d="M83 350c0 230 187 417 417 417 230 0 417-187 417-417 0-230-187-417-417-417-230 0-417 187-417 417z m380 158c0 20 17 37 37 37 20 0 36-17 36-37v-184c0-20-16-36-36-36-20 0-37 16-37 36v184z m37-353c-20 0-36 17-36 37 0 20 16 36 36 36 20 0 37-16 37-36 0-20-17-37-37-37z" horiz-adv-x="1000" />

<glyph glyph-name="info-square" unicode="&#xe821;" d="M320 767h361c141 0 236-99 236-247v-340c0-147-95-247-236-247h-361c-142 0-237 100-237 247v340c0 148 95 247 237 247z m180-294c-20 0-36 16-36 36 0 20 16 36 36 36 20 0 37-16 37-36 0-20-17-36-37-36z m36-280c0-20-16-37-36-37-20 0-37 17-37 37v184c0 20 17 36 37 36 20 0 36-16 36-36v-184z" horiz-adv-x="1000" />

<glyph glyph-name="location" unicode="&#xe822;" d="M146 420c0 192 160 347 354 347 194 0 354-155 354-347 0-96-35-186-93-262-63-84-142-157-231-214-20-14-38-15-60 0-89 57-168 130-231 214-58 76-93 166-93 262z m237-11c0-64 53-114 117-114 64 0 117 50 117 114 0 64-53 117-117 117-64 0-117-53-117-117z" horiz-adv-x="1000" />

<glyph glyph-name="lock" unicode="&#xe823;" d="M730 542v-64c72-22 124-87 124-165v-206c0-96-79-174-178-174h-352c-98 0-178 78-178 174v206c0 78 52 143 124 165v64c0 124 103 225 229 225 128 0 231-101 231-225z m-230 152c86 0 156-68 156-152v-55h-312v56c0 83 70 151 156 151z m37-530c0-20-16-36-37-36-20 0-37 16-37 36v92c0 20 17 36 37 36 21 0 37-16 37-36v-92z" horiz-adv-x="1000" />

<glyph glyph-name="login" unicode="&#xe824;" d="M495 767h210c105 0 191-84 191-185v-464c0-102-86-185-192-185h-209c-105 0-191 83-191 185v200h267l-69-67c-13-12-13-33 0-45 6-6 15-9 23-9 9 0 17 3 24 9l125 121c7 6 10 14 10 23 0 8-3 17-10 23l-125 121c-13 12-34 12-47 0-13-13-13-33 0-46l69-66h-267v199c0 102 86 186 191 186z m-391-417c0 18 15 32 33 32h167v-64h-167c-18 0-33 14-33 32z" horiz-adv-x="1000" />

<glyph glyph-name="logout" unicode="&#xe825;" d="M412 382c-18 0-32-14-32-32 0-17 14-32 32-32h255v-199c0-102-85-186-189-186h-206c-104 0-189 83-189 185v463c0 103 85 186 189 186h207c103 0 188-83 188-185v-200h-255z m406 112l122-121c6-6 9-14 9-23 0-8-3-17-9-22l-122-122c-6-6-15-9-23-9-8 0-16 3-22 9-13 13-13 33 0 46l66 66h-172v64h172l-66 66c-13 13-13 33 0 46 12 13 32 13 45 0z" horiz-adv-x="1000" />

<glyph glyph-name="message" unicode="&#xe826;" d="M706 725c56 0 109-22 149-62 40-39 62-93 62-148v-330c0-116-95-210-211-210h-412c-116 0-211 94-211 210v330c0 116 95 210 211 210h412z m66-272l3 3c10 12 10 29 0 42-6 6-14 10-22 10-9 1-17-2-23-8l-188-150c-24-20-59-20-84 0l-187 150c-13 10-31 8-42-3-11-11-12-29-3-42l6-5 189-148c24-18 52-28 82-28 29 0 58 10 81 28l188 151z" horiz-adv-x="1000" />

<glyph glyph-name="more-circle" unicode="&#xe827;" d="M83 350c0 230 187 417 417 417 230 0 417-187 417-417 0-230-187-417-417-417-230 0-417 187-417 417z m230-50c-27 0-50 23-50 50 0 28 23 50 50 50 28 0 50-22 50-50 0-27-22-50-50-50z m137 50c0-27 23-50 50-50 28 0 50 23 50 50 0 28-22 50-50 50-27 0-50-22-50-50z m187 0c0-27 22-50 50-50 27 0 49 23 49 50 0 28-22 50-49 50-28 0-50-22-50-50z" horiz-adv-x="1000" />

<glyph glyph-name="more-square" unicode="&#xe828;" d="M320 767h361c141 0 236-99 236-247v-340c0-147-95-247-236-247h-361c-142 0-237 100-237 247v340c0 148 95 247 237 247z m-7-467c-27 0-50 23-50 50 0 28 23 50 50 50 28 0 50-22 50-50 0-27-22-50-50-50z m137 50c0-27 23-50 50-50 28 0 50 23 50 50 0 28-22 50-50 50-27 0-50-22-50-50z m187 0c0-27 22-50 50-50 27 0 49 23 49 50 0 28-22 50-49 50-28 0-50-22-50-50z" horiz-adv-x="1000" />

<glyph glyph-name="notification" unicode="&#xe829;" d="M780 484c0-53 13-84 44-119 23-26 30-60 30-96 0-37-12-71-36-100-31-33-75-55-121-58-65-6-131-11-197-11-66 0-132 3-197 11-46 3-90 25-121 58-24 29-36 63-36 100 0 36 7 70 30 96 32 35 45 66 45 119v17c0 70 17 116 53 161 54 65 139 105 224 105h4c87 0 175-41 228-110 34-44 50-87 50-156v-17z m-402-470c0 21 19 31 37 35 21 4 148 4 169 0 18-4 37-14 37-35-1-20-13-38-29-49-21-16-46-27-72-30-14-2-28-2-42 0-25 3-50 14-71 30-16 11-28 29-29 49z" horiz-adv-x="1000" />

<glyph glyph-name="paper-download" unicode="&#xe82a;" d="M506 157l119 119c12 13 12 32-1 44-12 13-31 13-43 0l-65-66v201c0 17-14 31-31 31-17 0-31-14-31-31v-201l-66 66c-12 13-31 13-43 0-12-12-12-31 0-44l118-119c3-3 6-5 10-7 4-2 8-2 12-2 4 0 8 0 12 2 3 2 7 4 9 7z m299 317c10 0 21 0 30 0 11 0 19-8 19-19v-335c0-103-83-187-185-187h-328c-108 0-195 88-195 197v449c0 103 83 188 186 188h220c11 0 19-9 19-19v-135c0-76 62-138 138-139 17 0 33 0 47 0 10 0 20 0 28 0 6 0 13 0 21 0z m12 61c-34 0-74 0-103 0-45 0-83 38-83 84v110c0 18 22 27 34 14 32-33 80-85 121-128 17-17 33-33 45-47 12-12 3-33-14-33z" horiz-adv-x="1000" />

<glyph glyph-name="paper-fail" unicode="&#xe82b;" d="M586 214c12 12 12 32 0 44l-51 51 51 51c12 12 12 31 0 43-12 13-32 13-44 0l-50-50-51 50c-12 13-31 13-43 0-12-12-12-31 0-43l50-51-50-51c-12-12-12-32 0-44 6-6 14-9 21-9 8 0 16 3 22 9l51 51 50-51c6-6 14-9 22-9 8 0 15 3 22 9z m220 260c9 0 20 0 29 0 11 0 19-8 19-19v-335c0-103-83-187-185-187h-328c-108 0-195 88-195 197v449c0 103 83 188 186 188h220c11 0 19-9 19-19v-135c0-76 63-138 138-139 17 0 33 0 47 0 10 0 20 0 28 0 6 0 13 0 22 0z m11 61c-34 0-74 0-103 0-45 0-83 38-83 84v110c0 18 22 27 34 14 32-33 80-85 122-128 16-17 32-33 44-47 12-12 3-33-14-33z" horiz-adv-x="1000" />

<glyph glyph-name="paper-negative" unicode="&#xe82c;" d="M360 309c0-17 14-31 31-31h203c17 0 31 14 31 31 0 17-14 31-31 31h-203c-17 0-31-14-31-31z m446 165c9 0 20 0 30 0 10 0 18-8 18-19v-335c0-103-83-187-185-187h-328c-108 0-195 88-195 197v449c0 103 83 188 186 188h220c11 0 19-9 19-19v-135c0-76 63-138 138-139 18 0 33 0 47 0 10 0 20 0 28 0 6 0 14 0 22 0z m11 61c-34 0-74 0-103 0-45 0-83 38-83 84v110c0 18 22 27 34 14 23-24 53-56 84-88 30-32 61-64 82-87 12-12 4-33-14-33z" horiz-adv-x="1000" />

<glyph glyph-name="paper-plus" unicode="&#xe82d;" d="M523 278h71c17 0 31 14 31 31 0 17-14 31-31 31h-71v72c0 17-14 31-31 31-16 0-31-14-31-31v-72h-70c-17 0-31-14-31-31 0-17 14-31 31-31h70v-72c0-17 15-31 31-31 17 0 31 14 31 31v72z m283 196c9 0 20 0 30 0 10 0 18-8 18-19v-335c0-103-83-187-185-187h-328c-108 0-195 88-195 197v449c0 103 83 188 186 188h220c11 0 19-9 19-19v-135c0-76 63-138 138-139 18 0 33 0 47 0 10 0 20 0 28 0 6 0 14 0 22 0z m11 61c-34 0-74 0-103 0-45 0-83 38-83 84v110c0 18 22 27 34 14 23-24 53-56 84-88 30-32 61-64 82-87 12-12 4-33-14-33z" horiz-adv-x="1000" />

<glyph glyph-name="paper-upload" unicode="&#xe82e;" d="M581 313c12-12 31-12 43 0 13 12 13 32 1 44l-119 120c-2 3-6 5-9 6-4 2-8 3-12 3-4 0-8-1-12-3-4-1-7-3-10-6l-118-120c-12-12-12-32 0-44 12-12 31-12 43 0l66 67v-202c0-17 14-30 31-30 17 0 31 13 31 30v202l65-67z m224 161c10 0 21 0 30 0 11 0 19-8 19-19v-335c0-103-83-187-185-187h-328c-108 0-195 88-195 197v449c0 103 83 188 186 188h220c11 0 19-9 19-19v-135c0-76 62-138 138-139 17 0 33 0 46 0 11 0 20 0 29 0 6 0 13 0 21 0z m12 61c-34 0-74 0-103 0-45 0-83 38-83 84v110c0 18 22 27 34 14 32-33 80-85 121-128 17-17 33-33 45-47 12-12 3-33-14-33z" horiz-adv-x="1000" />

<glyph glyph-name="paper" unicode="&#xe82f;" d="M372 167h224c17 0 31 14 31 31 0 17-14 31-31 31h-224c-17 0-31-14-31-31 0-17 14-31 31-31z m139 271h-139c-17 0-31-15-31-32 0-17 14-31 31-31h139c17 0 31 14 31 31 0 17-14 32-31 32z m295 36c9 0 20 0 30 0 10 0 18-8 18-19v-335c0-103-83-187-185-187h-328c-108 0-195 88-195 197v449c0 103 83 188 186 188h220c11 0 19-9 19-19v-135c0-76 63-138 138-139 18 0 33 0 47 0 10 0 20 0 28 0 6 0 14 0 22 0z m11 61c-34 0-74 0-102 0-46 0-84 38-84 84v110c0 18 22 27 34 14 23-24 53-56 84-88 30-32 61-64 82-87 12-12 4-33-14-33z" horiz-adv-x="1000" />

<glyph glyph-name="password" unicode="&#xe830;" d="M709 242c17 0 31 14 31 31v77c0 17-14 31-31 31h-237c-14 45-55 77-104 77-59 0-108-48-108-108 0-60 49-108 108-108 49 0 90 32 104 77h88v-46c0-17 14-31 31-31 17 0 31 14 31 31v46h56v-46c0-17 14-31 31-31z m-390 525h362c141 0 236-99 236-247v-340c0-148-95-247-236-247h-362c-141 0-236 99-236 247v340c0 148 95 247 236 247z m4-417c0 25 20 46 45 46 26 0 46-21 46-46 0-25-20-46-46-46-25 0-45 21-45 46z" horiz-adv-x="1000" />

<glyph glyph-name="play" unicode="&#xe831;" d="M83 350c0 230 187 417 417 417 230 0 417-187 417-417 0-230-187-417-417-417-230 0-417 187-417 417z m570-42c4 4 10 11 11 13 7 8 10 18 10 29 0 12-4 22-11 31 0 1-1 2-3 4-2 2-6 7-10 10-33 36-119 94-164 111-7 3-24 9-33 9-9 0-18-2-26-6-10-5-18-14-22-24-3-8-8-29-8-30-4-24-6-62-6-105 0-40 2-77 6-101 0-1 0-2 1-5 1-8 5-25 8-32 9-17 26-27 45-27h2c12 0 37 10 37 11 43 18 127 73 160 109l3 3z" horiz-adv-x="1000" />

<glyph glyph-name="plus" unicode="&#xe832;" d="M305 767h389c142 0 223-80 223-222v-390c0-141-81-222-222-222h-390c-142 0-222 81-222 222v390c0 142 80 222 222 222z m229-452h119c19 1 34 16 34 35 0 20-15 35-34 35h-119v118c0 19-15 34-34 34-20 0-35-15-35-34v-118h-118c-9 0-18-4-24-10-7-7-10-15-10-25 0-19 15-34 34-35h118v-117c0-20 15-35 35-35 19 0 34 15 34 35v117z" horiz-adv-x="1000" />

<glyph glyph-name="profile" unicode="&#xe833;" d="M721 546c0-122-98-220-221-220-122 0-221 98-221 220 0 123 99 221 221 221 123 0 221-98 221-221z m-221-613c-181 0-333 30-333 143 0 113 153 142 333 142 181 0 333-30 333-143 0-113-153-142-333-142z" horiz-adv-x="1000" />

<glyph glyph-name="scan" unicode="&#xe834;" d="M351 725c18 0 32-14 32-31 0-17-14-31-32-31l-68 0c-56 0-102-45-102-101v-77c0-17-14-31-32-31-17 0-31 14-31 31v77c0 90 74 163 165 163l68 0h0z m299 0h66c92 0 166-73 166-163v-77c0-17-14-31-31-31-18 0-32 14-32 31v77c0 56-46 101-103 101h-66c-17 0-32 14-32 31 0 17 15 31 32 31z m-35-156h-230c-53 0-95-43-95-94v-52c1-6 6-11 12-11h396c7 0 12 5 12 11v52c0 25-10 49-28 66-17 18-42 28-67 28z m-542-221h854c17 0 31-14 31-31 0-17-14-31-31-31h-45v-148c0-90-74-163-166-163h-66c-17 0-32 14-32 31 0 17 15 31 32 31h66c57 0 103 45 103 101v148h-109v-41c0-52-42-94-95-95h-230c-53 1-95 43-95 95v41h-109v-148c0-56 46-101 102-101l68 0c18 0 32-14 32-31 0-17-14-31-32-31l-68 0c-91 0-165 73-165 163v148h-45c-17 0-31 14-31 31 0 17 14 31 31 31z" horiz-adv-x="1000" />

<glyph glyph-name="search" unicode="&#xe835;" d="M83 405c0 200 160 362 358 362 95 0 185-38 253-106 67-68 104-160 104-256 0-199-160-361-357-361-198 0-358 162-358 361z m709-291l107-85h2c21-22 21-58 0-79-22-22-57-22-78 0l-89 101c-8 8-13 20-13 32 0 12 5 23 13 31 16 16 42 16 58 0z" horiz-adv-x="1000" />

<glyph glyph-name="send" unicode="&#xe836;" d="M893 742c-21 22-51 30-80 21l-671-195c-30-8-52-32-58-63-6-31 15-71 42-88l210-128c21-14 49-10 67 8l240 241c12 13 32 13 44 0 12-12 12-32 0-44l-240-242c-18-18-21-46-8-67l128-212c15-25 41-40 69-40 3 0 7 0 10 1 33 4 59 26 68 58l199 670c9 28 1 59-20 80z" horiz-adv-x="1000" />

<glyph glyph-name="setting" unicode="&#xe837;" d="M850 284c15-8 27-20 35-33 15-26 14-57-1-85l-30-50c-16-27-45-43-75-43-15 0-32 4-46 12-11 7-23 10-37 10-42 0-77-35-79-76 0-48-39-86-88-86h-58c-49 0-88 38-88 86-1 41-37 76-79 76-14 0-27-3-37-10-14-8-31-12-45-12-31 0-60 16-76 43l-30 50c-15 27-16 59 0 85 6 13 19 25 34 33 12 6 19 16 27 27 21 36 8 83-28 104-42 24-56 77-32 118l29 49c25 41 77 56 120 32 37-20 85-7 107 29 7 11 10 24 10 36-1 16 3 32 12 44 15 26 44 43 75 44h60c31 0 60-18 76-44 7-12 13-28 11-44-1-12 3-25 10-36 22-36 70-49 107-29 42 24 96 9 120-32l29-49c24-41 11-94-32-118-36-21-49-68-27-104 7-11 14-21 26-27z m-470 66c0-66 54-118 121-118 66 0 119 52 119 118 0 65-53 118-119 118-67 0-121-53-121-118z" horiz-adv-x="1000" />

<glyph glyph-name="shield-done" unicode="&#xe838;" d="M489-63c4-3 9-4 15-4 5 0 10 2 15 4l148 80c42 22 75 47 101 76 56 64 87 146 86 229l-2 277c0 32-21 60-52 71l-276 93c-17 5-35 5-51-1l-276-96c-31-11-51-39-51-71l2-277c0-84 32-165 89-228 26-29 59-53 102-75l150-78z m-40 325c7-6 15-9 23-9 8 0 16 3 22 9l162 161c13 12 12 31 0 43-12 12-32 12-44 0l-141-139-57 56c-13 11-33 11-45-1-12-12-12-31 1-43l79-77z" horiz-adv-x="1000" />

<glyph glyph-name="shield-fail" unicode="&#xe839;" d="M800 670c31-11 52-39 52-71l2-277c1-83-30-165-86-228-26-30-59-55-101-77l-149-80c-4-2-9-4-14-4-5 0-11 2-15 4l-151 78c-42 22-75 46-101 75-57 63-89 145-89 228l-2 277c-1 32 20 60 51 71l276 96c16 6 34 6 51 0l276-92z m-199-407c12 12 12 32 0 43l-57 56 57 55c12 12 12 31 0 43-12 12-32 12-45 0l-56-55-57 55c-12 12-32 12-44 0-12-12-12-31 0-43l56-55-56-56c-12-11-12-31 0-43 6-6 14-9 22-9 8 0 16 3 22 9l57 55 56-55c7-6 15-9 23-9 8 0 16 3 22 9z" horiz-adv-x="1000" />

<glyph glyph-name="show" unicode="&#xe83a;" d="M337 350c0-89 73-161 163-161 89 0 162 72 162 161 0 89-73 162-162 162-90 0-163-73-163-162z m402 248c71-55 132-135 175-236 4-8 4-16 0-24-87-201-242-321-414-321h0c-172 0-327 120-414 321-3 8-3 16 0 24 87 201 242 321 414 321h0c86 0 168-30 239-85z m-239-348c56 0 101 45 101 100 0 56-45 101-101 101-5 0-10 0-14-1-2-45-38-80-83-80h-2c-2-7-3-13-3-20 0-55 46-100 102-100z" horiz-adv-x="1000" />

<glyph glyph-name="star" unicode="&#xe83b;" d="M747 253c-11-10-16-25-14-40l37-205c4-18-4-35-18-45-15-11-34-12-49-3l-185 96c-6 3-13 5-20 5h-12c-4 0-8-1-11-3l-185-97c-9-5-19-6-29-5-25 5-41 28-37 53l37 205c2 15-3 30-13 41l-151 146c-13 12-17 30-11 47 5 16 20 29 37 31l207 30c16 2 30 11 37 26l91 187c2 4 5 8 8 11l4 3c2 2 4 4 7 5l4 2 7 3h18c16-2 29-11 37-25l92-186c7-14 20-23 35-26l207-30c17-2 32-14 38-31 5-17 0-35-13-47l-155-148z" horiz-adv-x="1000" />

<glyph glyph-name="swap" unicode="&#xe83c;" d="M314 713c7-5 19-16 19-16 43-41 108-142 129-193 1 0 13-30 14-45v-2c0-22-13-43-33-54-8-4-28-8-38-10-3-1-5-1-5-1-29-5-73-7-121-7-50 0-96 2-124 8-1 0-26 5-35 9-12 5-23 15-29 27-5 9-8 19-8 30 1 11 8 32 11 40 21 54 90 158 132 197 4 5 9 10 13 13 1 1 3 3 3 3 11 9 24 13 38 13 12 0 24-4 34-12z m446-286c0-22-18-40-39-40-22 0-39 18-39 40l-11 190c0 28 22 51 50 51 27 0 49-23 49-51l-10-190z m120-128c12-6 23-15 30-28 4-9 7-19 7-30-1-11-8-32-11-40-21-54-90-158-132-197-4-5-9-9-12-13l0 0c-2-1-4-3-4-3-11-9-24-13-38-13-12 0-24 4-34 12-7 5-18 16-18 16-44 41-109 142-130 193-1 0-13 31-13 45v2c0 22 12 43 32 54 8 4 28 8 38 10l0 0c3 1 5 1 5 1 29 5 73 7 121 7 50 0 96-2 124-8 1 0 26-5 35-8z m-601 14c-21 0-38-18-38-40l-11-190c0-28 22-51 49-51 28 0 50 23 50 51l-11 190c0 22-17 40-39 40z" horiz-adv-x="1000" />

<glyph glyph-name="tick-square" unicode="&#xe83d;" d="M320 767h361c141 0 236-99 236-247v-340c0-147-95-247-236-247h-361c-142 0-237 100-237 247v340c0 148 95 247 237 247z m156-542l198 198c14 15 14 37 0 52-14 14-37 14-51 0l-173-172-72 73c-15 14-38 14-52 0-14-14-14-37 0-52l99-99c7-7 16-10 25-10 10 0 19 3 26 10z" horiz-adv-x="1000" />

<glyph glyph-name="ticket-star" unicode="&#xe83e;" d="M823 350c0-34 28-61 62-61 18 0 32-14 32-31v-112c0-94-78-171-173-171h-488c-95 0-173 77-173 171v112c0 17 14 31 32 31 34 0 62 27 62 61 0 33-27 58-62 58-9 0-17 3-22 9-6 6-10 14-10 22l0 115c0 94 78 171 173 171h488c95 0 173-77 173-171l0-112c0-8-4-16-9-21-6-6-14-10-23-10-34 0-62-27-62-61z m-229-27l49 47c9 9 12 21 8 32-4 11-13 19-25 21l-68 9-30 61c-5 11-16 17-28 17h0c-12 0-22-6-28-17l-30-61-68-9c-11-2-21-10-25-21-3-11 0-23 8-32l49-47-11-67c-2-12 2-23 12-30 5-4 12-6 18-6 5 0 10 1 14 4l61 31 61-31c10-6 23-5 32 2 10 7 15 18 13 30l-12 67z" horiz-adv-x="1000" />

<glyph glyph-name="ticket" unicode="&#xe83f;" d="M908 411c-6-6-13-9-22-9-29 0-54-23-54-52 0-29 24-52 54-52 17 0 31-12 31-28v-100c0-85-71-153-158-153h-131c-14 0-25 10-25 24v84c0 17-13 30-30 30-17 0-30-13-30-30v-84c0-14-11-24-25-24h-277c-87 0-158 68-158 153v100c0 16 15 28 31 28 30 0 54 23 54 52 0 28-24 49-54 49-8 0-16 3-22 9-5 5-9 13-9 21v101c0 84 71 153 158 153h277c14 0 25-10 25-23v-101c0-16 13-29 30-29 17 0 30 13 30 29v101c0 13 11 23 25 23h131c87 0 158-68 158-153v-98c0-8-4-16-9-21z m-335-181c17 0 30 14 30 30v156c0 16-13 30-30 30-17 0-30-14-30-30v-156c0-16 13-30 30-30z" horiz-adv-x="1000" />

<glyph glyph-name="time-circle" unicode="&#xe840;" d="M500-67c-230 0-417 187-417 417 0 230 187 417 417 417 230 0 417-187 417-417 0-230-187-417-417-417z m133 262c5-2 10-4 16-4 11 0 21 5 27 15 9 15 4 34-11 43l-148 89v192c0 18-14 31-32 31-17 0-31-13-31-31v-210c0-11 6-21 16-27l163-98z" horiz-adv-x="1000" />

<glyph glyph-name="time-square" unicode="&#xe841;" d="M320 767h361c141 0 236-99 236-247v-340c0-147-95-247-236-247h-361c-142 0-237 100-237 247v340c0 148 95 247 237 247z m329-576c11 0 21 6 27 16 9 14 4 34-11 43l-148 88v193c0 17-14 31-32 31-17 0-31-14-31-31v-211c0-11 6-21 16-27l163-97c5-3 11-5 16-5z" horiz-adv-x="1000" />

<glyph glyph-name="unlock" unicode="&#xe842;" d="M343 487h333c99 0 178-78 178-174v-206c0-96-79-174-178-174h-352c-98 0-178 78-178 174v206c0 79 54 145 128 166l-5 0v63c1 124 104 225 230 225 99 0 186-61 218-151 4-10 3-19-2-28-4-9-11-16-21-18-19-7-40 3-47 22-22 61-81 102-147 102-86 0-156-68-157-151v-56l0 0z m157-359c21 0 37 16 37 36v92c0 20-16 36-37 36-20 0-37-16-37-36v-92c0-20 17-36 37-36z" horiz-adv-x="1000" />

<glyph glyph-name="upload" unicode="&#xe843;" d="M353 632c-10-13-8-31 3-42 13-12 33-12 46 0l66 67v-173h64v173l66-67 4-3c13-9 30-8 42 3 6 6 9 15 9 23 0 8-3 16-9 22l-121 122-4 4c-6 4-12 6-19 6-9 0-17-4-23-10l-121-122-3-3z m-93-148c-98-5-177-87-177-188v-206l1-9c4-100 85-180 185-180h463l8 0c98 5 177 87 177 188v207l0 8c-5 101-87 180-186 180h-199v-254l0-5c-2-16-16-28-32-28-18 0-32 15-32 33v254h-200l-8 0z" horiz-adv-x="1000" />

<glyph glyph-name="video" unicode="&#xe844;" d="M255 663h241c101 0 171-70 171-170v-286c0-100-70-169-171-169h-241c-101 0-172 69-172 169v286c0 100 71 170 172 170z m577-100c18 10 39 9 57-2 17-11 28-30 28-51v-320c0-21-11-40-28-51-10-6-20-9-31-9-9 0-18 2-26 7l-62 31c-23 11-37 35-37 61v243c0 25 14 49 37 60l62 31z" horiz-adv-x="1000" />

<glyph glyph-name="voice-2" unicode="&#xe845;" d="M507 216h-14c-100 0-182 80-182 179v193c0 99 82 179 182 179h14c83 0 153-55 175-131 3-10-5-20-16-20h-47c-14 0-26-12-26-26v0c0-14 12-25 26-25h44c14 0 26-12 26-26 0-14-12-26-26-26h-44c-14 0-26-11-26-25 0-14 12-26 26-26h44c14 0 26-11 26-26 0-14-12-25-26-25h-44c-14 0-26-12-26-26 0-14 12-25 26-25h45c11 0 19-11 15-21-23-72-91-123-172-123z m266 185c0 22 19 40 41 40 22 0 40-18 40-40 0-180-137-328-314-348v-80c0-22-18-40-40-40-22 0-40 18-40 40v80c-177 20-314 168-314 348 0 22 18 40 40 40 23 0 41-18 41-40 0-149 122-270 273-270 151 0 273 121 273 270z" horiz-adv-x="1000" />

<glyph glyph-name="voice" unicode="&#xe846;" d="M507 216h-14c-100 0-182 80-182 179v193c0 99 82 179 182 179h14c100 0 182-80 182-179v-193c0-99-82-179-182-179z m266 185c0 22 19 40 41 40 22 0 40-18 40-40 0-180-137-328-314-348v-80c0-22-18-40-40-40-22 0-40 18-40 40v80c-177 20-314 168-314 348 0 22 18 40 40 40 23 0 41-18 41-40 0-149 122-270 273-270 151 0 273 121 273 270z" horiz-adv-x="1000" />

<glyph glyph-name="volume-down" unicode="&#xe847;" d="M631 644c5-21 7-42 10-63l1-18c8-62 8-364 0-426l-1-19-1 0c-1-19-3-39-9-60-14-50-54-83-98-83-1 0-3 0-4 0-25 0-51 15-67 28l-147 123h-75c-58 0-101 42-109 107-9 65-7 177 0 237 9 62 53 104 109 104h75l145 121c17 15 48 30 72 30 44 0 84-31 99-81z m125-55c18 12 42 8 53-10 43-62 66-143 66-229 0-86-23-167-66-229-7-11-18-17-31-17-8 0-15 2-22 7-17 12-21 37-9 54 33 50 51 115 51 185 0 70-18 136-51 185-12 18-8 42 9 54z" horiz-adv-x="1000" />

<glyph glyph-name="volume-off" unicode="&#xe848;" d="M851 714c15 15 39 15 54 0 15-15 15-40 0-55l-714-714c-7-8-17-12-27-12-10 0-20 4-28 11-15 16-15 40 0 55l118 118h-1c-59 0-102 41-109 106-9 64-8 175 0 233 8 61 53 103 109 103h76l146 119c17 15 49 29 73 30 44 0 85-31 99-81 6-20 8-41 10-61l3-28c1-5 2-9 2-13l189 189z m-231-436c6 6 19 10 25 8 17-4 20-27 19-45 0-53-2-90-5-113l-2-19 0 0c-2-19-4-39-9-59-15-50-54-82-99-82-2 0-3 0-5 0-24 0-51 15-66 28l-55 42c-20 15-14 40-3 54 9 10 113 106 167 156 19 17 32 28 33 30z" horiz-adv-x="1000" />

<glyph glyph-name="volume-up" unicode="&#xe849;" d="M557 581c-2 21-5 42-10 63-15 50-55 81-99 81-24 0-55-15-72-30l-144-121h-76c-55 0-100-42-108-104-7-60-9-172 0-237 7-65 50-107 108-107h76l147-123c15-13 41-28 66-28 1 0 3 0 4 0 45 0 84 33 98 83 6 21 8 41 10 60l0 0 2 19c7 62 7 364 0 426l-2 18z m168-2c-12 18-36 23-53 10-17-12-21-37-9-54 33-49 51-115 51-185 0-70-18-135-51-185-12-17-8-42 9-54 7-5 14-7 22-7 12 0 24 6 31 17 43 62 66 143 66 229 0 86-23 167-66 229z m79 137c17 12 41 8 53-10 65-96 101-223 101-356 0-133-36-260-101-356-7-11-19-17-31-17-8 0-16 3-22 7-17 13-22 37-10 55 57 83 88 194 88 311 0 117-31 228-88 311-12 18-7 42 10 55z" horiz-adv-x="1000" />

<glyph glyph-name="wallet" unicode="&#xe84a;" d="M740 501h177c0 141-85 224-229 224h-376c-144 0-229-83-229-222v-306c0-139 85-222 229-222h376c144 0 229 83 229 222v13h-177c-81 0-148 65-148 145 0 80 67 144 148 144v2z m0-62h146c17 0 31-14 31-31v-105c0-17-14-30-31-30h-142c-42-1-78 27-87 66-5 24 2 50 18 69 16 19 40 30 65 31z m7-111h13c18 0 32 14 32 31 0 17-14 31-32 31h-13c-9 0-17-3-23-9-6-6-9-14-9-22 0-17 14-31 32-31z m-466 173h235c18 0 32 14 32 31 0 17-14 31-32 31h-235c-18 0-32-14-32-31 0-17 14-31 32-31z" horiz-adv-x="1000" />

<glyph glyph-name="work" unicode="&#xe84b;" d="M446 703c-28 0-52-19-58-45h224c-7 26-30 45-58 45h-108z m229-45h83c87 0 159-72 159-161 0 0-3-37-4-90 0-4-2-8-5-10-20-15-38-27-40-28-69-47-150-79-235-95-6-2-11 1-14 6-24 42-69 69-119 69-50 0-95-27-120-68-3-5-8-8-14-7-85 16-165 49-234 94l-40 28c-3 2-5 6-5 10-2 22-4 91-4 91 0 89 72 161 159 161h82c8 61 60 109 122 109h108c62 0 113-48 121-109z m228-342l-2-1c-84-56-186-94-292-109-15-3-30 7-34 22-9 35-39 58-74 58h-1-1c-35 0-65-23-74-58-4-15-19-25-34-22-106 15-208 53-292 109 0 1-4 3-8 1-3-2-3-7-3-7l2-215c0-89 71-161 159-161h502c87 0 158 72 158 161l4 215c0 0 0 5-4 7-2 1-5 1-6 0z m-372-177c0-17-14-31-31-31-17 0-31 14-31 31v55c0 17 14 31 31 31 17 0 31-14 31-31v-55z" horiz-adv-x="1000" />

<glyph glyph-name="2-user" unicode="&#xe84c;" d="M592 527c0-111-90-199-202-199-113 0-203 88-203 199 0 110 90 198 203 198 112 0 202-88 202-198z m-509-424c0 102 141 128 307 128 166 0 306-26 306-128 0-102-141-128-306-128-166 0-307 26-307 128z m591 420c0-56-17-108-47-152-4-4-1-10 5-11 7-2 15-2 23-3 79-2 150 48 170 123 29 112-57 212-165 212-12 0-23-1-34-3-2-1-3-2-4-3-1-1-1-4 1-5 32-45 51-99 51-158z m131-244c53-10 88-31 103-61 12-25 12-54 0-78-23-47-94-62-122-66-6-1-10 4-10 10 15 129-98 191-127 205-2 1-2 2-2 2 0 1 1 1 2 1 63 2 131-7 156-13z" horiz-adv-x="1000" />

<glyph glyph-name="3-user" unicode="&#xe84d;" d="M673 507c0-98-78-176-175-176-97 0-175 78-175 176 0 98 78 176 175 176 97 0 175-78 175-176z m-175-490c-143 0-265 22-265 113 0 91 121 114 265 114 143 0 265-22 265-113 0-91-121-114-265-114z m250 487c0-50-15-97-41-135-2-4 0-10 5-10 6-2 13-2 20-2 68-2 130 42 147 109 25 99-49 188-143 188-10 0-20-1-29-3-2 0-3-1-4-2-1-2 0-3 1-5 28-40 44-88 44-140z m114-217c46-9 76-27 88-54 11-22 11-48 0-70-19-41-81-55-105-58-5-1-9 3-8 8 12 116-85 170-111 183-1 0-1 1-1 2 0 0 1 1 2 1 54 1 113-7 135-12z m-594 70c7 0 14 0 20 2 5 0 8 6 5 10-26 38-41 85-41 135 0 52 16 100 44 140 1 2 2 3 1 5-1 1-2 2-3 2-10 2-20 3-30 3-94 0-168-89-143-188 17-67 79-111 147-109z m7-59c0-1 0-2-1-2-26-13-123-67-111-183 1-5-3-9-8-8-24 3-86 16-105 58-11 22-11 48 0 70 12 27 42 45 88 54 22 5 81 13 136 12 0 0 1-1 1-1z" horiz-adv-x="1000" />

<glyph glyph-name="activity" unicode="&#xe84e;" d="M716 666c0 56 45 101 100 101 56 0 101-45 101-101 0-55-45-100-101-100-55 0-100 45-100 100z m-161-431l121 155-2 0c7 9 8 20 4 31-5 10-15 17-26 18-11 1-22-4-29-13l-101-130-115 91c-7 5-16 7-24 6-8-1-16-5-21-12l-123-161-3-3c-7-14-3-31 9-40 6-4 12-6 19-6 10-1 19 4 25 12l104 135 119-89 4-3c13-7 30-3 39 9z m89 458c-2-11-3-21-3-32 0-93 76-169 169-169 11 0 21 1 31 3v-337c0-141-83-225-225-225h-308c-141 0-225 84-225 225v309c0 141 84 226 225 226h336z" horiz-adv-x="1000" />

<glyph glyph-name="add-user" unicode="&#xe84f;" d="M396 327c115 0 207 93 207 209 0 117-92 210-207 210-115 0-207-93-207-210 0-116 92-209 207-209z m0-103c-169 0-313-27-313-134 0-108 143-136 313-136 168 0 312 27 312 135 0 108-143 135-312 135z m433 227h50c21 0 38-18 38-38 0-21-17-38-38-38h-50v-49c0-21-17-38-37-38-21 0-38 17-38 38v49h-50c-21 0-37 17-37 38 0 20 16 38 37 38h50v49c0 20 17 38 38 38 20 0 37-18 37-38v-49z" horiz-adv-x="1000" />

<glyph glyph-name="arrow---down-2" unicode="&#xe850;" d="M453 157c-2 2-13 11-21 20-54 48-141 175-168 241-4 10-13 36-14 49 0 13 3 26 9 38 9 14 22 26 38 33 11 4 44 10 44 10 36 7 94 10 159 10 61 0 117-3 153-9 1 0 42-7 56-14 25-13 41-38 41-65v-3c-1-18-16-55-17-55-27-63-110-186-165-236 0 0-14-14-23-20-13-10-29-14-45-14-17 0-34 5-47 15z" horiz-adv-x="1000" />

<glyph glyph-name="arrow---down-3" unicode="&#xe851;" d="M725 344c-5 10-15 16-26 16h-169v334c0 17-13 31-30 31-16 0-30-14-30-31v-334h-169c-11 0-21-6-26-16-6-10-5-22 0-31l200-324c5-9 15-14 25-14 10 0 20 5 25 14l200 324c3 5 4 11 4 16 0 5-1 11-4 15z" horiz-adv-x="1000" />

<glyph glyph-name="arrow---down-circle" unicode="&#xe852;" d="M500-67c-230 0-417 187-417 417 0 230 187 417 417 417 230 0 417-187 417-417 0-230-187-417-417-417z m167 500c-13 12-32 12-44-1l-123-123-122 123c-13 13-33 13-45 1-12-13-12-33 0-45l145-145c6-6 14-9 22-9 8 0 16 3 22 9l145 145c6 6 9 14 9 22 0 8-3 16-9 23z" horiz-adv-x="1000" />

<glyph glyph-name="arrow---down-square" unicode="&#xe853;" d="M83 180v340c0 148 95 247 236 247h361c142 0 237-99 237-247v-340c0-147-95-247-237-247h-361c-141 0-236 100-236 247z m448 75v265c0 18-14 31-31 31-17 0-31-13-31-31v-265l-103 104c-6 6-14 9-22 9-8 0-16-3-22-9-12-12-12-32 0-44l156-157c12-12 32-12 44 0l156 157c12 12 12 32 0 44-12 12-32 12-44 0l-103-104z" horiz-adv-x="1000" />

<glyph glyph-name="arrow---down" unicode="&#xe854;" d="M437 662l13-154c0-27 23-49 50-49 27 0 50 22 50 49l13 154c0 35-28 63-63 63-35 0-63-28-63-63z m11-667c2-2 4-4 5-4 13-11 30-16 47-16 16 0 32 5 45 14 9 7 23 21 23 21 55 51 138 176 165 240 1 0 16 38 17 56v2c0 28-16 54-41 67-11 6-37 11-49 13-4 1-6 1-7 2-36 5-92 9-153 9-65 0-123-4-159-11 0 0-33-6-44-10-16-7-29-19-38-34-6-12-9-25-9-38 1-14 10-40 14-50 27-67 114-196 168-245 5-6 12-12 16-16z" horiz-adv-x="1000" />

<glyph glyph-name="arrow---left-2" unicode="&#xe855;" d="M307 397c2 3 11 13 20 21 48 54 175 141 241 168 10 4 36 13 49 14 13 0 26-3 38-9 14-9 26-22 33-38 4-11 10-43 10-44 7-36 10-94 10-159 0-61-3-117-9-153 0-1-7-42-14-56-13-25-38-41-65-41h-3c-18 1-55 17-55 17-63 27-186 110-236 165 0 0-14 15-20 23-10 13-14 29-14 45 0 17 5 34 15 47z" horiz-adv-x="1000" />

<glyph glyph-name="arrow---left-3" unicode="&#xe856;" d="M494 125c10 5 16 15 16 26v169h334c17 0 31 14 31 30 0 17-14 30-31 30h-334v169c0 11-6 21-16 26-10 6-22 5-31 0l-324-200c-9-5-14-15-14-25 0-10 5-20 14-25l324-200c5-3 11-4 16-4 5 0 11 1 15 4z" horiz-adv-x="1000" />

<glyph glyph-name="arrow---left-circle" unicode="&#xe857;" d="M83 350c0 230 187 417 417 417l12 0c224-7 405-191 405-417 0-230-187-417-417-417-230 0-417 187-417 417z m500-167c12 13 12 32-1 45l-123 122 123 123c13 12 13 32 1 44-13 12-33 12-45 0l-145-145c-6-6-9-14-9-22 0-8 3-16 9-22l145-145c6-6 14-9 22-9 8 0 16 3 23 9z" horiz-adv-x="1000" />

<glyph glyph-name="arrow---left-square" unicode="&#xe858;" d="M330 767h340c148 0 247-95 247-236v-361c0-142-99-237-247-237h-340c-147 0-247 95-247 237v361c0 141 100 236 247 236z m75-448h265c18 0 31 14 31 31 0 18-13 31-31 31h-265l104 103c6 6 9 14 9 22 0 8-3 16-9 22-12 12-32 12-44 0l-157-156c-12-12-12-32 0-44l157-156c12-12 32-12 44 0 12 12 12 32 0 44l-104 103z" horiz-adv-x="1000" />

<glyph glyph-name="arrow---left" unicode="&#xe859;" d="M549 350l0 15c-1 59-5 111-11 144 0 0-6 33-10 44-7 16-19 29-34 38-12 6-25 9-38 9-10 0-28-6-40-10l-10-4c-67-27-196-114-245-168l-4-3-16-18c-11-13-16-30-16-47 0-16 5-32 15-45 2-4 7-9 11-14l16-16c54-55 172-132 233-158 0-1 38-16 56-17h2c28 0 54 16 67 41 4 7 7 21 10 33l5 23c5 36 9 92 9 153z m263-63c35 0 63 28 63 63 0 35-28 63-63 63l-154-13c-27 0-49-23-49-50 0-27 22-50 49-50l154-13z" horiz-adv-x="1000" />

<glyph glyph-name="arrow---right-2" unicode="&#xe85a;" d="M693 303c-2-2-11-13-20-21-48-54-175-141-241-168-10-4-36-13-49-14-13 0-26 3-37 9-15 9-27 22-34 38-4 11-10 44-10 44-7 36-10 94-10 159 0 61 3 117 9 153 0 1 7 42 14 56 13 25 38 41 66 41h2c18-1 55-16 55-17 63-27 186-110 236-165 0 0 14-14 20-23 10-13 14-29 14-45 0-17-5-34-15-47z" horiz-adv-x="1000" />

<glyph glyph-name="arrow---right-3" unicode="&#xe85b;" d="M506 575c-10-5-16-15-16-26v-169h-334c-17 0-31-13-31-30 0-16 14-30 31-30h334v-169c0-11 6-21 16-26 10-6 22-5 31 0l324 200c9 5 14 15 14 25 0 10-5 20-14 25l-324 200c-5 3-11 4-16 4-5 0-10-1-15-4z" horiz-adv-x="1000" />

<glyph glyph-name="arrow---right-circle" unicode="&#xe85c;" d="M917 350c0-230-187-417-417-417l-12 0c-224 7-405 191-405 417 0 230 187 417 417 417 230 0 417-187 417-417z m-499 167c-13-13-13-32 0-44l123-123-123-122c-13-13-13-33 0-45 12-12 32-12 44 0l145 145c6 6 9 14 9 22 0 8-3 16-9 22l-145 145c-6 6-14 9-22 9-8 0-16-3-22-9z" horiz-adv-x="1000" />

<glyph glyph-name="arrow---right-square" unicode="&#xe85d;" d="M670-67h-340c-147 0-247 95-247 236v361c0 142 100 237 247 237h340c148 0 247-95 247-237v-361c0-141-99-236-247-236z m-75 448h-265c-17 0-31-14-31-31 0-17 14-31 31-31h265l-104-103c-6-6-9-14-9-22 0-8 3-16 9-22 12-12 32-12 44 0l158 156c11 12 11 32 0 44l-158 156c-12 12-32 12-44 0-12-12-12-32 0-44l104-103z" horiz-adv-x="1000" />

<glyph glyph-name="arrow---right" unicode="&#xe85e;" d="M452 350l0-15c0-58 4-111 10-144 0 0 6-33 11-44 6-16 18-29 33-38 12-6 25-9 38-9 11 1 28 6 40 10l10 4c67 27 196 114 246 168l3 3 16 18c11 13 16 30 16 47 0 16-5 32-14 45-3 4-8 9-12 14l-16 16c-54 55-172 132-233 158 0 1-38 16-56 17h-2c-28 0-54-16-67-41-4-7-7-21-10-33l-4-23c-6-36-9-92-9-153z m-264 63c-35 0-63-28-63-63 0-35 28-63 63-63l154 13c27 0 49 23 49 50 0 27-22 50-49 50l-154 13z" horiz-adv-x="1000" />

<glyph glyph-name="arrow---up-2" unicode="&#xe85f;" d="M547 543c3-2 13-11 21-20 54-48 141-175 168-241 4-10 13-36 14-49 0-13-3-26-9-37-9-15-22-27-38-34-11-4-43-10-44-10-36-7-94-10-159-10-61 0-117 3-153 9-1 0-42 7-56 14-25 13-41 38-41 66v2c1 18 17 55 17 55 27 63 110 186 165 236 0 0 15 14 23 20 13 10 29 14 45 14 17 0 34-5 47-15z" horiz-adv-x="1000" />

<glyph glyph-name="arrow---up-3" unicode="&#xe860;" d="M275 356c5-10 15-16 26-16h169v-334c0-17 14-31 30-31 17 0 30 14 30 31v334h169c11 0 21 6 26 16 6 10 5 22 0 31l-200 324c-5 9-15 14-25 14-10 0-20-5-25-14l-200-324c-3-5-4-11-4-16 0-5 1-10 4-15z" horiz-adv-x="1000" />

<glyph glyph-name="arrow---up-circle" unicode="&#xe861;" d="M500 767c230 0 417-187 417-417l0-12c-7-224-191-405-417-405-230 0-417 187-417 417 0 230 187 417 417 417z m-167-499c13-13 32-13 45 0l122 123 123-123c12-13 32-13 44 0 12 12 12 32 0 44l-145 145c-6 6-14 9-22 9-8 0-16-3-22-9l-145-145c-6-6-9-14-9-22 0-8 3-16 9-22z" horiz-adv-x="1000" />

<glyph glyph-name="arrow---up-square" unicode="&#xe862;" d="M917 520v-340c0-147-95-247-236-247h-361c-142 0-237 100-237 247v340c0 148 95 247 237 247h361c141 0 236-99 236-247z m-448-75v-265c0-17 14-31 31-31 18 0 31 14 31 31v265l103-104c6-6 14-9 22-9 8 0 16 3 22 9 12 12 12 32 0 44l-156 158c-12 11-32 11-44 0l-156-158c-12-12-12-32 0-44 12-12 32-12 44 0l103 104z" horiz-adv-x="1000" />

<glyph glyph-name="arrow---up" unicode="&#xe863;" d="M500 302l15 0c59 0 111 4 144 10 0 0 33 6 44 11 16 6 29 18 38 33 6 12 9 25 9 38 0 11-6 28-10 40l-4 10c-27 67-114 196-168 246l-3 3-18 16c-13 11-30 16-47 16-16 0-32-5-45-14-4-3-9-8-14-12l-16-16c-55-54-132-172-158-233-1 0-16-38-17-56v-2c0-28 16-54 41-67 7-4 21-7 33-10l23-4c36-6 92-9 153-9z m-63-264c0-35 28-63 63-63 35 0 63 28 63 63l-13 154c0 27-23 49-50 49-27 0-50-22-50-49l-13-154z" horiz-adv-x="1000" />
</font>
</defs>
</svg>
