<svg width="41" height="41" viewBox="0 0 41 41" fill="none" xmlns="http://www.w3.org/2000/svg">
<path d="M31.2969 12.0001C31.0711 11.3868 30.7107 10.8323 30.2424 10.3778C29.7838 9.91141 29.2278 9.5531 28.6145 9.32884C27.7748 9.01396 26.8868 8.84862 25.9905 8.84021C24.4956 8.76691 24.0585 8.75879 20.2804 8.75879C16.5023 8.75879 16.0626 8.77099 14.5694 8.84021C13.6732 8.85002 12.7855 9.01532 11.9455 9.32884C11.3336 9.55609 10.7782 9.914 10.3175 10.3778C9.84656 10.8301 9.48581 11.3852 9.26315 12.0001C8.95129 12.8355 8.78663 13.719 8.7765 14.6111C8.70431 16.0991 8.69531 16.538 8.69531 20.308C8.69531 24.0648 8.70756 24.5168 8.7765 26.0048C8.78572 26.9009 8.95038 27.7886 9.26315 28.628C9.489 29.2413 9.84932 29.7958 10.3175 30.2503C10.7763 30.7165 11.3323 31.0747 11.9455 31.2993C12.7852 31.6142 13.6731 31.7795 14.5694 31.7879C16.0643 31.8612 16.5015 31.8693 20.2804 31.8693C24.0464 31.8693 24.4981 31.8572 25.9905 31.7879C26.8867 31.7781 27.7745 31.6128 28.6145 31.2993C29.2262 31.0717 29.7815 30.7139 30.2424 30.2503C30.7131 29.7979 31.0739 29.2428 31.2969 28.628C31.609 27.7884 31.7736 26.9009 31.7835 26.0048C31.8565 24.5168 31.8646 24.0771 31.8646 20.308C31.8646 16.5389 31.8524 16.0991 31.7835 14.6111C31.7756 13.7188 31.6109 12.8349 31.2969 12.0001ZM20.2893 27.5416C18.3722 27.5476 16.5312 26.789 15.171 25.4326C13.8108 24.0761 13.0427 22.2329 13.0356 20.308C13.038 19.3545 13.2276 18.4109 13.5936 17.5311C13.9596 16.6513 14.4948 15.8526 15.1685 15.1806C15.8422 14.5087 16.6414 13.9768 17.52 13.6152C18.3987 13.2536 19.3397 13.0696 20.2893 13.0735C22.2064 13.0677 24.0474 13.8265 25.4074 15.1831C26.7675 16.5397 27.5354 18.3831 27.5422 20.308C27.5403 21.2615 27.3511 22.2052 26.9853 23.0852C26.6195 23.9651 26.0845 24.764 25.4107 25.4359C24.7369 26.1079 23.9377 26.6397 23.0589 27.0011C22.1801 27.3624 21.2389 27.5461 20.2893 27.5416ZM27.8325 14.4768C27.6106 14.4773 27.3908 14.4338 27.1856 14.3488C26.9804 14.2638 26.7939 14.1389 26.637 13.9814C26.48 13.8238 26.3556 13.6367 26.2708 13.4307C26.1861 13.2248 26.1427 13.004 26.1431 12.7811C26.1427 12.5583 26.1861 12.3375 26.2708 12.1316C26.3556 11.9256 26.48 11.7385 26.637 11.581C26.7939 11.4234 26.9804 11.2985 27.1856 11.2135C27.3908 11.1285 27.6106 11.085 27.8325 11.0856C28.0544 11.085 28.2744 11.1285 28.4795 11.2135C28.6846 11.2985 28.871 11.4234 29.0279 11.581C29.1848 11.7386 29.3092 11.9257 29.3939 12.1316C29.4785 12.3376 29.5218 12.5583 29.5213 12.7811C29.5217 13.0038 29.4784 13.2244 29.3938 13.4302C29.3091 13.636 29.1849 13.823 29.0282 13.9805C28.8715 14.138 28.6854 14.2629 28.4805 14.3481C28.2756 14.4332 28.056 14.477 27.8342 14.4768H27.8325Z" fill="#07842A"/>
<path d="M0 0.16748V40.8881H40.5553V0.16748H0ZM34.3097 26.1147C34.2864 27.2824 34.0648 28.4375 33.6544 29.5303C33.2973 30.4721 32.7418 31.3253 32.0257 32.0314C31.3201 32.7497 30.4659 33.3036 29.5235 33.6537C28.4266 34.0658 27.2681 34.2885 26.0973 34.3125C24.5902 34.3858 24.1044 34.3981 20.2776 34.3981C16.4379 34.3981 15.9641 34.3858 14.4579 34.3125C13.287 34.2887 12.1286 34.0659 11.0318 33.6537C10.093 33.296 9.24002 32.7431 8.52879 32.0314C7.81017 31.3276 7.25436 30.4737 6.90083 29.5303C6.48967 28.4377 6.26777 27.2825 6.24468 26.1147C6.17168 24.6145 6.16359 24.1259 6.16359 20.3079C6.16359 16.4802 6.17574 16.0013 6.24468 14.5011C6.26768 13.3333 6.48958 12.1781 6.90083 11.0855C7.25712 10.1435 7.81256 9.2902 8.52879 8.5844C9.23448 7.86577 10.089 7.31189 11.0318 6.96209C12.1285 6.54946 13.287 6.32671 14.4579 6.30326C15.9641 6.22997 16.45 6.22179 20.2776 6.22179C24.1052 6.22179 24.5902 6.23404 26.0973 6.30326C27.2682 6.32688 28.4267 6.54963 29.5235 6.96209C30.4622 7.3195 31.315 7.87239 32.0257 8.5844C32.7445 9.28825 33.3004 10.1421 33.6544 11.0855C34.065 12.1783 34.2866 13.3334 34.3097 14.5011C34.3827 16.0013 34.395 16.4891 34.395 20.3079C34.395 24.1267 34.3827 24.6145 34.3097 26.1147Z" fill="#07842A"/>
<path d="M20.267 15.6114C19.6507 15.6087 19.0399 15.7282 18.4697 15.9629C17.8995 16.1977 17.3809 16.5431 16.9439 16.9794C16.5069 17.4157 16.16 17.9343 15.9229 18.5055C15.6859 19.0767 15.5633 19.6893 15.5625 20.3081C15.5635 20.9269 15.686 21.5394 15.9231 22.1106C16.1602 22.6817 16.5072 23.2002 16.9442 23.6365C17.3812 24.0728 17.8996 24.4183 18.4698 24.6531C19.04 24.8879 19.6507 25.0074 20.267 25.0048C20.8832 25.0074 21.4939 24.8879 22.0641 24.6531C22.6343 24.4183 23.1527 24.0728 23.5897 23.6365C24.0267 23.2002 24.3737 22.6817 24.6108 22.1106C24.8479 21.5394 24.9704 20.9269 24.9713 20.3081C24.9714 19.689 24.8497 19.076 24.613 18.5044C24.3763 17.9328 24.0293 17.4137 23.5921 16.9772C23.1548 16.5407 22.636 16.1954 22.0653 15.961C21.4946 15.7265 20.8835 15.6078 20.267 15.6114Z" fill="#07842A"/>
</svg>
