<svg width="42" height="41" viewBox="0 0 42 41" fill="none" xmlns="http://www.w3.org/2000/svg">
<path fill-rule="evenodd" clip-rule="evenodd" d="M29.8629 12.5612C29.4079 12.7516 28.9758 12.9932 28.5749 13.2812L14.8672 22.2356V22.2601C14.8672 22.2723 14.8794 22.2845 14.8915 22.2967C14.9037 22.3448 16.0944 26.3468 16.9087 28.9447L17.2332 24.1503C17.2415 24.0489 17.2733 23.9508 17.3261 23.864C17.379 23.7772 17.4513 23.704 17.5373 23.6503L28.4597 14.5622C28.4597 14.5622 30.0267 13.1957 30.3674 12.7567C30.4574 12.6468 30.3488 12.4635 29.8629 12.5612Z" fill="#07842A"/>
<path fill-rule="evenodd" clip-rule="evenodd" d="M0.84375 0.167725V40.8884H41.399V0.167725H0.84375ZM35.5185 10.6468L35.2873 11.8415C34.2061 17.2981 32.3957 26.4195 31.1563 31.2384C31.0745 31.6973 30.8424 32.1156 30.497 32.4272C30.1516 32.7387 29.7126 32.9257 29.2495 32.9584C28.6959 32.934 28.1641 32.7344 27.7302 32.3883C26.2362 31.3027 23.575 29.3139 21.3396 27.6427C20.2097 26.7892 19.1894 26.0204 18.4845 25.4959L18.1082 30.9004C18.0975 31.0426 18.0371 31.1764 17.9378 31.2783C17.8312 31.4078 17.679 31.4909 17.5128 31.5104C17.4592 31.5194 17.4049 31.5235 17.3505 31.5226C17.0791 31.549 16.8066 31.4858 16.5742 31.3427C16.3417 31.1995 16.1621 30.9842 16.0625 30.7294C15.4428 28.8139 14.0947 24.3492 13.7176 23.0682C12.5512 22.7269 8.83399 21.6414 7.04794 20.8481C6.75213 20.7016 6.51764 20.4545 6.38634 20.1507C6.25503 19.8469 6.2354 19.5061 6.33089 19.1891C6.44558 18.932 6.61334 18.7023 6.82308 18.5151C7.03282 18.328 7.27976 18.1877 7.54755 18.1035C14.7404 15.1391 32.2595 8.41691 32.442 8.34362C32.8282 8.20437 33.2346 8.1303 33.6448 8.1245C34.0051 8.09939 34.3647 8.18368 34.6767 8.36638C34.9887 8.54909 35.2388 8.82182 35.3945 9.14908C35.6103 9.61804 35.6542 10.1485 35.5185 10.6468Z" fill="#07842A"/>
</svg>
