<?xml version="1.0" standalone="no"?>
<!DOCTYPE svg PUBLIC "-//W3C//DTD SVG 1.1//EN" "http://www.w3.org/Graphics/SVG/1.1/DTD/svg11.dtd">
<svg xmlns="http://www.w3.org/2000/svg">
<metadata>Copyright (C) 2023 by original authors @ fontello.com</metadata>
<defs>
<font id="fontello" horiz-adv-x="1000" >
<font-face font-family="fontello" font-weight="400" font-stretch="normal" units-per-em="1000" ascent="850" descent="-150" />
<missing-glyph horiz-adv-x="1000" />
<glyph glyph-name="left" unicode="&#xe800;" d="M0 353l390 391q19 18 44 18 25 0 43-18t18-44-18-43l-243-243h642q25 0 43-18t18-43-18-43-43-18h-642l243-243q18-18 18-44t-18-43-43-18-44 18z" horiz-adv-x="938" />

<glyph glyph-name="password" unicode="&#xe801;" d="M681 735h-362c-125 0-204-89-204-215v-340c0-126 78-215 204-215h362c126 0 204 89 204 215v340c0 126-78 215-204 215z m-236-385c0-43-34-77-77-77-42 0-77 34-77 77 0 43 35 77 77 77h0c43 0 77-34 77-77z m1 0h263v-77m-118 0v77" horiz-adv-x="1000" />

<glyph glyph-name="play" unicode="&#xe802;" d="M500 746c219 0 396-177 396-396 0-219-177-396-396-396-219 0-396 177-396 396 0 219 177 396 396 396z m125-396c0 34-173 142-193 123-19-20-21-224 0-245 22-22 193 88 193 122z" horiz-adv-x="1000" />

<glyph glyph-name="plus" unicode="&#xe803;" d="M500 503v-305m153 152h-306m348 417h-390c-136 0-222-97-222-233v-368c0-136 85-233 222-233h390c137 0 222 97 222 233v368c0 136-85 233-222 233z" horiz-adv-x="1000" />

<glyph glyph-name="profile" unicode="&#xe804;" d="M499 211c-161 0-298-25-298-122 0-98 136-123 298-123 162 0 299 24 299 122 0 97-137 123-299 123z m0 139c106 0 192 86 192 191 0 106-86 192-192 192-105 0-191-86-191-192 0-105 85-191 190-191h1z" horiz-adv-x="1000" />

<glyph glyph-name="scan" unicode="&#xe805;" d="M938 316h-875m797 176v63c0 86-70 155-156 155h-50m-514-218v63c0 86 70 155 156 155h52m512-393v-170c0-86-70-156-156-156h-50m-514 326v-170c0-86 70-156 156-156h52" horiz-adv-x="1000" />

<glyph glyph-name="search" unicode="&#xe806;" d="M751 80l147-147" horiz-adv-x="1000" />

<glyph glyph-name="send" unicode="&#xe807;" d="M421 294l-271 160c-39 23-31 79 13 91l644 178c40 11 78-24 66-63l-191-607c-13-42-71-49-96-12l-165 253" horiz-adv-x="1000" />

<glyph glyph-name="setting" unicode="&#xe808;" d="M867 532l-26 45c-22 38-71 52-109 30v0c-18-11-39-14-60-9-20 6-38 19-48 37-7 12-11 25-11 38v0c1 22-8 43-23 58-15 15-35 24-57 24h-52c-21 0-41-8-56-23-15-15-23-35-23-57v0c-1-43-36-78-80-78-13 0-27 4-38 11v0c-38 21-87 8-109-30l-28-46c-22-38-9-86 29-108v0c25-15 40-41 40-69 0-29-15-55-40-69v0c-38-22-51-71-29-109v0l27-45c10-19 27-32 48-38 20-6 42-3 60 7v0c19 11 40 14 61 8 20-5 37-19 48-37 6-11 10-25 10-38v0c0-44 36-80 80-80h52c44 0 80 36 80 80v0c0 21 8 41 23 56 15 15 36 23 57 23 13 0 26-4 38-10v0c38-22 86-9 109 29v0l27 45c11 19 14 40 8 61-5 20-19 37-37 48v0c-18 11-32 28-37 48-6 21-3 42 8 61 7 12 17 22 29 29v0c38 22 51 70 29 108v0 0z" horiz-adv-x="1000" />

<glyph glyph-name="shield-done" unicode="&#xe809;" d="M499-50c0 0 320 97 320 363 0 267 12 288-14 314-26 25-264 108-306 108-42 0-280-83-305-108-26-26-14-47-14-314 0-266 319-363 319-363z m-108 405l79-79 162 163" horiz-adv-x="1000" />

<glyph glyph-name="shield-fail" unicode="&#xe80a;" d="M499-50c0 0 320 97 320 363 0 267 12 288-14 314-26 25-264 108-306 108-41 0-280-83-305-108-26-26-14-47-14-314 0-266 319-363 319-363z m79 324l-157 157m0-157l157 157" horiz-adv-x="1000" />

<glyph glyph-name="show" unicode="&#xe80b;" d="M632 348c0-73-59-132-132-132-73 0-132 59-132 132 0 73 59 132 132 132 73 0 132-59 132-132z m-132-304c159 0 304 114 385 304-81 190-226 304-385 304h0c-159 0-304-114-385-304 81-190 226-304 385-304h0z" horiz-adv-x="1000" />

<glyph glyph-name="star" unicode="&#xe80c;" d="M546 676l76-152c8-15 22-25 39-28l170-24c42-6 59-57 28-87l-123-118c-12-12-17-28-14-45l29-167c7-41-37-73-75-53l-152 79c-15 8-33 8-48 0l-152-79c-38-20-82 12-74 53l29 167c2 17-3 33-15 45l-123 118c-31 30-14 81 28 87l170 24c17 3 31 13 39 28l76 152c19 38 73 38 92 0z" horiz-adv-x="1000" />

<glyph glyph-name="swap" unicode="&#xe80d;" d="M702 10v567m170-396l-170-171-170 171m-244 509v-567m-170 397l170 170 170-170" horiz-adv-x="1000" />

<glyph glyph-name="tick-square" unicode="&#xe80e;" d="M681 735h-362c-125 0-204-89-204-215v-340c0-126 78-215 204-215h362c126 0 204 89 204 215v340c0 126-78 215-204 215z m-329-385l99-99 197 198" horiz-adv-x="1000" />

<glyph glyph-name="ticket-star" unicode="&#xe80f;" d="M744-1c78 0 141 64 141 142v0 112c-51 0-93 42-93 94 0 51 42 93 93 93h0v112c1 78-63 142-141 142h0-488c-78 0-141-63-141-142v0-116c49 2 91-37 93-87 0-1 0-2 0-2 0-52-42-94-93-94h0v-112c0-78 63-142 141-142h0 488z m-228 473l25-52c3-5 8-8 13-9l58-8c14-2 19-20 9-30l-41-40c-4-4-6-10-5-16l9-57c3-14-12-24-25-18l-51 27c-5 3-11 3-16 0l-51-27c-13-6-28 4-25 18l9 57c1 6 0 12-5 16l-41 40c-10 10-5 28 10 30l57 8c6 1 10 4 13 9l26 52c6 13 24 13 31 0z" horiz-adv-x="1000" />

<glyph glyph-name="ticket" unicode="&#xe810;" d="M577 673v-101m0-462v-84m0 227v201m202-437c76 0 138 60 138 135v108c-51 0-91 40-91 90 0 50 40 90 91 90l0 108c0 75-62 135-138 135h-558c-76 0-138-60-138-135l0-112c51 0 91-36 91-86 0-50-40-90-91-90v-108c0-75 62-135 138-135h558z" horiz-adv-x="1000" />

<glyph glyph-name="time-circle" unicode="&#xe811;" d="M885 350c0-213-172-385-385-385-213 0-385 172-385 385 0 213 172 385 385 385 213 0 385-172 385-385z m-242-123l-157 94v202" horiz-adv-x="1000" />

<glyph glyph-name="time-square" unicode="&#xe812;" d="M681 735h-362c-125 0-204-89-204-215v-340c0-126 78-215 204-215h362c126 0 204 89 204 215v340c0 126-78 215-204 215z m-40-469l-141 84v182" horiz-adv-x="1000" />

<glyph glyph-name="unlock" unicode="&#xe813;" d="M684 618c-25 75-96 128-179 128-105 0-190-84-190-189v-1-89m349-492h-318c-88 0-158 71-158 158v179c0 87 70 158 158 158h318c87 0 158-71 158-158v-179c0-87-71-158-158-158z m-159 294v-93" horiz-adv-x="1000" />

<glyph glyph-name="upload" unicode="&#xe814;" d="M308 476h-39c-85 0-153-69-153-154v-203c0-85 68-154 153-154h464c85 0 153 69 153 154v204c0 84-68 153-153 153l-39 0m-193 283v-502m-122 380l122 122 121-122" horiz-adv-x="1000" />

<glyph glyph-name="video" unicode="&#xe815;" d="M679 203c3-77-58-141-138-145-5 0-290 1-290 1-79-6-148 51-155 127 0 5 0 311 0 311-3 76 58 141 137 145 6 0 291-1 291-1 79 6 149-51 155-127 0-6 0-311 0-311z m0 231l137 113c34 27 85 3 85-41l0-306c0-44-51-68-85-40l-137 112" horiz-adv-x="1000" />

<glyph glyph-name="voice-3" unicode="&#xe816;" d="M500-67v132m0 166v0c-93 0-169 76-169 170v196c0 94 76 170 169 170 94 0 169-76 169-170v-196c0-94-75-170-169-170z m333 169c0-185-149-335-333-335-184 0-333 150-333 335m419 169h83m-124-140h124" horiz-adv-x="1000" />

<glyph glyph-name="voice" unicode="&#xe817;" d="M500-67v132m0 166v0c-93 0-169 76-169 170v196c0 94 76 170 169 170 94 0 169-76 169-170v-196c0-94-75-170-169-170z m333 169c0-185-149-335-333-335-184 0-333 150-333 335" horiz-adv-x="1000" />

<glyph glyph-name="volume-down" unicode="&#xe818;" d="M167 350c0-51-3-121 29-147 30-25 50-18 104-22 54-4 168-163 256-113 46 36 49 111 49 282 0 172-3 246-49 282-88 50-202-109-256-113-54-4-74 3-104-22-32-26-29-96-29-147z m607 154c55-96 55-212 0-308" horiz-adv-x="1000" />

<glyph glyph-name="volume-off" unicode="&#xe819;" d="M606 456l-285-285c-7 5-14 7-20 8-54 4-75-3-105 23-32 27-29 100-29 153 0 53-3 126 29 153 30 25 51 19 105 23 54 4 168 169 256 117 36-29 46-84 49-192z m0-186c-2-120-11-178-49-208-40-24-87-2-130 29m-260-74l154 154 285 285 227 227" horiz-adv-x="1000" />

<glyph glyph-name="volume-up" unicode="&#xe81a;" d="M104 350c0-51-2-121 30-147 29-25 50-18 104-22 54-4 168-163 256-113 45 36 49 111 49 282 0 172-4 246-49 282-88 50-202-109-256-113-54-4-75 3-104-22-32-26-30-96-30-147z m712 254c106-153 107-355 0-508m-104 408c54-96 54-212 0-308" horiz-adv-x="1000" />

<glyph glyph-name="wallet" unicode="&#xe81b;" d="M902 250h-169c-62 0-112 50-112 112 0 62 50 112 112 112h169m-150-109h-13m-416 360h360c121 0 219-98 219-219v-299c0-120-98-218-219-218h-360c-121 0-219 98-219 218v299c0 121 98 219 219 219z m-30-189h225" horiz-adv-x="1000" />

<glyph glyph-name="work" unicode="&#xe81c;" d="M500 155v106m258 367c70 0 127-57 127-128v-143c-102-60-238-96-385-96-148 0-283 36-385 96v144c0 70 57 127 127 127h516z m-112 0v15c0 51-42 92-92 92h-108c-51 0-92-41-92-92v-15m-238-423l8-105c5-70 64-125 134-125h483c71 0 130 55 135 125l8 105" horiz-adv-x="1000" />

<glyph glyph-name="2-user" unicode="&#xe81d;" d="M400 216c153 0 285-23 285-116 0-93-131-117-285-117-154 0-285 23-285 116 0 93 130 117 285 117z m0 133c-101 0-183 82-183 183 0 101 82 183 183 183 101 0 182-82 182-183 1-101-80-182-181-183h-1z m287 48c67 9 118 66 118 136 0 68-50 125-115 135m85-432c64-9 110-32 110-79 0-32-22-53-56-66" horiz-adv-x="1000" />

<glyph glyph-name="3-user" unicode="&#xe81e;" d="M745 396c58 8 103 58 103 118 0 60-43 109-100 119m74-377c56-8 96-28 96-68 0-28-19-47-49-58m-374 109c-134 0-248-20-248-101 0-81 114-102 248-102 134 0 249 20 249 101 0 81-114 102-249 102z m0 116c88 0 159 71 159 159 0 88-71 159-159 159-88 0-159-71-159-159 0-88 71-159 158-159h1z m-250 41c-58 8-103 58-103 118 0 60 44 109 100 119m-73-377c-57-8-96-28-96-68 0-28 18-47 48-58" horiz-adv-x="1000" />

<glyph glyph-name="activity" unicode="&#xe81f;" d="M302 234l125 162 142-111 122 157m-69 278h-303c-125 0-203-89-203-214v-337c0-126 76-214 203-214h359c125 0 203 88 203 214v293" horiz-adv-x="1000" />

<glyph glyph-name="add-user" unicode="&#xe820;" d="M412 216c-161 0-297-24-297-121 0-97 136-122 297-122 160 0 297 24 297 121 0 97-136 122-297 122z m0 139c105 0 190 85 190 190 0 105-85 190-190 190-106 0-191-85-191-190 0-105 84-190 189-190h2z m388 134v-167m85 83h-170" horiz-adv-x="1000" />

<glyph glyph-name="arrow---down-2" unicode="&#xe821;" d="M792 496l-292-292-292 292" horiz-adv-x="1000" />

<glyph glyph-name="arrow---down-3" unicode="&#xe822;" d="M511 321v373m-209-373l209-331 208 331h-417z" horiz-adv-x="1000" />

<glyph glyph-name="arrow---down-circle" unicode="&#xe823;" d="M115 350c0-213 172-385 385-385 213 0 385 172 385 385 0 213-172 385-385 385-213 0-385-172-385-385z m240 60l145-145 145 145" horiz-adv-x="1000" />

<glyph glyph-name="arrow---down-square" unicode="&#xe824;" d="M319-35h362c126 0 204 89 204 215v340c0 126-78 215-204 215h-362c-126 0-204-89-204-215v-340c0-126 78-215 204-215z m181 215v340m156-183l-156-157-156 157" horiz-adv-x="1000" />

<glyph glyph-name="arrow---down" unicode="&#xe825;" d="M511 27v625m251-373l-251-252-251 252" horiz-adv-x="1000" />

<glyph glyph-name="arrow---left-2" unicode="&#xe826;" d="M646 58l-292 292 292 292" horiz-adv-x="1000" />

<glyph glyph-name="arrow---left-3" unicode="&#xe827;" d="M471 340l373 0m-373 208l-331-208 331-209 0 417z" horiz-adv-x="1000" />

<glyph glyph-name="arrow---left-circle" unicode="&#xe828;" d="M500 735c-213 0-385-172-385-385 0-213 172-385 385-385 213 0 385 172 385 385 0 213-172 385-385 385z m60-240l-145-145 145-145" horiz-adv-x="1000" />

<glyph glyph-name="arrow---left-square" unicode="&#xe829;" d="M115 531l0-362c0-125 89-204 215-204l340 0c126 0 215 78 215 204l0 362c0 126-89 204-215 204l-340 0c-126 0-215-78-215-204z m215-181l340 0m-183-156l-157 156 157 156" horiz-adv-x="1000" />

<glyph glyph-name="arrow---left" unicode="&#xe82a;" d="M177 339l625 0m-373-251l-252 251 252 251" horiz-adv-x="1000" />

<glyph glyph-name="arrow---right-2" unicode="&#xe82b;" d="M354 642l292-292-292-292" horiz-adv-x="1000" />

<glyph glyph-name="arrow---right-3" unicode="&#xe82c;" d="M529 361h-373m373-209l331 209-331 208v-417z" horiz-adv-x="1000" />

<glyph glyph-name="arrow---right-circle" unicode="&#xe82d;" d="M500-35c213 0 385 172 385 385 0 213-172 385-385 385-213 0-385-172-385-385 0-213 172-385 385-385z m-60 240l145 145-145 145" horiz-adv-x="1000" />

<glyph glyph-name="arrow---right-square" unicode="&#xe82e;" d="M885 169v362c0 126-89 204-215 204h-340c-126 0-215-78-215-204l0-362c0-126 89-204 215-204h340c126 0 215 78 215 204z m-215 181h-340m183 156l157-156-157-156" horiz-adv-x="1000" />

<glyph glyph-name="arrow---right" unicode="&#xe82f;" d="M823 361l-625 0m373 251l252-251-252-251" horiz-adv-x="1000" />

<glyph glyph-name="arrow---up-2" unicode="&#xe830;" d="M208 204l292 292 292-292" horiz-adv-x="1000" />

<glyph glyph-name="arrow---up-3" unicode="&#xe831;" d="M490 379l0-373m208 373l-208 331-209-331 417 0z" horiz-adv-x="1000" />

<glyph glyph-name="arrow---up-circle" unicode="&#xe832;" d="M885 350c0 213-172 385-385 385-213 0-385-172-385-385 0-213 172-385 385-385 213 0 385 172 385 385z m-240-60l-145 145-145-145" horiz-adv-x="1000" />

<glyph glyph-name="arrow---up-square" unicode="&#xe833;" d="M681 735h-362c-125 0-204-89-204-215v-340c0-126 78-215 204-215h362c126 0 204 89 204 215v340c0 126-78 215-204 215z m-181-215l0-340m-156 183l156 157 156-157" horiz-adv-x="1000" />

<glyph glyph-name="arrow---up" unicode="&#xe834;" d="M489 673l0-625m-251 373l251 252 251-252" horiz-adv-x="1000" />

<glyph glyph-name="bag-3" unicode="&#xe835;" d="M657 462v127c0 87-70 157-157 157-87 0-157-70-158-157v0-127m356-487h-396c-98 0-177 79-177 177v230c0 98 79 177 177 177h396c98 0 177-79 177-177v-230c0-98-79-177-177-177z" horiz-adv-x="1000" />

<glyph glyph-name="bag" unicode="&#xe836;" d="M676-34h-348c-128 0-226 46-198 232l32 251c17 93 77 129 128 129h424c53 0 109-39 129-129l32-251c24-165-72-232-199-232z m5 621c0 99-80 180-180 180v0c-48 0-94-19-128-53-33-34-52-79-52-127h0m304-188h-2m-241 0h-2" horiz-adv-x="1000" />

<glyph glyph-name="bookmark" unicode="&#xe837;" d="M823 594c0 114-79 160-192 160h-265c-109 0-191-43-191-153v-613c0-31 33-50 59-35l266 149 263-149c27-14 60 5 60 35v606z m-478-120h305" horiz-adv-x="1000" />

<glyph glyph-name="buy" unicode="&#xe838;" d="M115 715l86-15 40-478c4-39 36-69 75-69h455c37 0 69 27 74 64l40 273c4 31-17 59-47 64-3 0-623 0-623 0m374-154h115m-406-392c13 0 23-10 23-22 0-13-10-23-23-23-12 0-23 10-23 23 0 12 11 22 23 22z m470 0c13 0 23-10 23-22 0-13-10-23-23-23-12 0-23 10-23 23 0 12 11 22 23 22z" horiz-adv-x="1000" />

<glyph glyph-name="calendar" unicode="&#xe839;" d="M129 458h743m-187-163h1m-186 0h1m-186 0h0m370-161h1m-186 0h1m-186 0h0m354 633v-137m-337 137v-137m345 71h-353c-123 0-199-68-199-194v-377c0-127 76-197 199-197h352c123 0 199 69 199 194v380c0 126-76 194-198 194z" horiz-adv-x="1000" />

<glyph glyph-name="call-missed" unicode="&#xe83a;" d="M888 694l-250-250m0 250l250-250m-428-114c166-166 204 26 309-79 102-102 161-123 32-252-16-13-119-170-481 192-361 361-205 464-192 481 130 129 150 70 252-32 106-106-87-143 80-310z" horiz-adv-x="1000" />

<glyph glyph-name="call-silent" unicode="&#xe83b;" d="M274 258c-268 304-134 395-122 409 128 130 148 71 248-31 85-86-25-127 20-230m100-114c137-112 176 49 273-50 99-102 157-122 30-251-15-13-111-161-440 161m-195-198l625 667" horiz-adv-x="1000" />

<glyph glyph-name="call" unicode="&#xe83c;" d="M481 330c166-166 203 26 309-79 102-102 161-123 32-252-17-13-119-170-481 192-362 361-205 464-192 481 130 129 150 70 252-32 105-106-87-143 80-310z" horiz-adv-x="1000" />

<glyph glyph-name="calling" unicode="&#xe83d;" d="M598 746c154-17 276-139 293-293m-293 145c74-14 132-72 146-146m-284-122c166-166 204 26 309-79 102-102 161-123 32-252-16-13-119-170-481 192-361 361-205 464-192 481 130 129 150 70 252-32 106-106-87-143 80-310z" horiz-adv-x="1000" />

<glyph glyph-name="camera" unicode="&#xe83e;" d="M627 681c42-17 55-75 72-94 17-18 42-25 55-25 73 0 131-58 131-131v-241c0-97-78-176-175-176h-420c-97 0-175 79-175 176v241c0 73 58 131 131 131 13 0 38 7 55 25 17 19 30 77 72 94 42 17 212 17 254 0z m102-227h0m-96-151c0 73-60 133-133 133-73 0-132-60-132-133 0-73 59-132 132-132 73 0 133 59 133 132z" horiz-adv-x="1000" />

<glyph glyph-name="category" unicode="&#xe83f;" d="M125 579c0 110 1 146 146 146 145 0 146-36 146-146 0-109 0-146-146-146-146 0-146 37-146 146z m458 0c0 110 2 146 146 146 145 0 146-36 146-146 0-109 1-146-146-146-146 0-146 37-146 146z m-458-458c0 109 1 146 146 146 145 0 146-37 146-146 0-109 0-146-146-146-146 0-146 37-146 146z m458 0c0 109 2 146 146 146 145 0 146-37 146-146 0-109 1-146-146-146-146 0-146 37-146 146z" horiz-adv-x="1000" />

<glyph glyph-name="chart" unicode="&#xe840;" d="M307 425v-286m195 423v-423m191 135v-135m2 628h-390c-136 0-222-97-222-233v-368c0-136 85-233 222-233h390c137 0 222 97 222 233v368c0 136-85 233-222 233z" horiz-adv-x="1000" />

<glyph glyph-name="chat" unicode="&#xe841;" d="M795 55c-128-127-316-154-471-83-22 9-41 16-59 16-49 0-111-48-143-16-32 32 16 94 16 144 0 17-7 36-16 59-71 154-44 342 83 470 163 162 427 162 590 0 163-163 162-427 0-590z m-131 278h1m-168 0h1m-168 0h0" horiz-adv-x="1000" />

<glyph glyph-name="close-square" unicode="&#xe842;" d="M600 450l-200-199m200-1l-200 200m281 285h-362c-125 0-204-89-204-215v-340c0-126 78-215 204-215h362c126 0 204 89 204 215v340c0 126-78 215-204 215z" horiz-adv-x="1000" />

<glyph glyph-name="danger-circle" unicode="&#xe843;" d="M500 735c213 0 385-172 385-385 0-213-172-385-385-385-213 0-385 172-385 385 0 213 172 385 385 385z m0-227v-184m0-132h0" horiz-adv-x="1000" />

<glyph glyph-name="danger-triangle" unicode="&#xe844;" d="M201-2h599c66 0 107 72 74 129l-299 524c-33 57-116 57-149 0l-300-524c-33-57 9-129 75-129z m299 293v129m0-257h0" horiz-adv-x="1000" />

<glyph glyph-name="delete" unicode="&#xe845;" d="M805 456c0 0-22-281-35-399-7-57-42-90-99-91-108-2-217-2-326 0-55 1-89 35-95 90-14 120-36 400-36 400m649 134h-707m571 0c-33 0-61 23-68 55l-10 51c-6 23-27 39-51 39h-177c-24 0-45-16-51-39l-10-51c-7-32-35-55-68-55" horiz-adv-x="1000" />

<glyph glyph-name="discount" unicode="&#xe846;" d="M200 556c0 52 42 94 94 94h43c25 0 49 10 66 28l30 30c37 37 97 37 134 0l0 0 0 0 30-30c18-18 41-28 66-28h43c52 0 94-42 94-94v-43c0-25 10-48 28-66l30-30c37-37 37-97 0-133l0 0 0-1-30-30c-18-17-28-41-28-66v-43c0-52-42-94-94-94h0-43c-25 0-48-10-66-28l-30-30c-37-37-96-37-133 0 0 0 0 0 0 0l-1 0-30 30c-17 18-41 28-66 28h-43c-52 0-94 42-94 94v43c0 25-10 49-28 66l-30 30c-36 37-37 97 0 133 0 0 0 1 0 1l0 0 30 30c18 18 28 41 28 66v43m193-313l214 214m-3-211h0m-208 208h0" horiz-adv-x="1000" />

<glyph glyph-name="discovery" unicode="&#xe847;" d="M345 227l66 212 212 66-66-212-212-66z" horiz-adv-x="1000" />

<glyph glyph-name="document" unicode="&#xe848;" d="M655 174h-301m301 175h-301m115 174h-115m309 212c0 0-320 0-320 0-115 0-187-76-187-191v-384c0-116 72-192 188-192 0 0 320 0 320 0 115 1 187 77 187 192v384c0 116-72 191-188 191z" horiz-adv-x="1000" />

<glyph glyph-name="download" unicode="&#xe849;" d="M505 207l0 502m122-380l-122-122-121 122m314 182h39c85 0 154-68 154-153v-204c0-84-69-153-154-153l-464 0c-85 0-153 69-153 154v203c0 85 68 153 153 153l39 0" horiz-adv-x="1000" />

<glyph glyph-name="edit-square" unicode="&#xe84a;" d="M479 734h-156c-128 0-208-91-208-219v-347c0-128 80-219 208-219h368c128 0 208 91 208 219v168m-531 59l311 311c39 39 102 39 141 0l50-50c39-39 39-102 0-141l-312-313c-17-17-40-26-64-26h-157l4 157c1 24 10 46 27 62z m264 263l190-190" horiz-adv-x="1000" />

<glyph glyph-name="edit" unicode="&#xe84b;" d="M573-2h302m-342 694c32 39 90 44 129 13 3-2 73-57 73-57 43-26 56-81 30-124-2-2-398-497-398-497-13-17-33-27-54-27l-152-2-34 145c-5 20 0 42 13 58l393 491z m-74-92l227-174" horiz-adv-x="1000" />

<glyph glyph-name="filter-3" unicode="&#xe84c;" d="M190 725c-36 0-65-30-65-66v-39c0-27 10-53 29-73l202-215 0 1c39-40 61-94 61-151v-190c0-13 13-21 24-15l115 63c17 9 28 28 28 48v95c0 56 22 110 60 149l202 215c19 20 29 46 29 73v39c0 36-29 66-65 66h-620z" horiz-adv-x="1000" />

<glyph glyph-name="filter" unicode="&#xe84d;" d="M430 159h-262m380 404h262m-446 2c0 54-44 98-99 98-54 0-98-44-98-98 0-54 44-98 98-98 55 0 99 44 99 98z m469-405c0 54-44 98-98 98-54 0-99-44-99-98 0-54 45-97 99-97 54 0 98 43 98 97z" horiz-adv-x="1000" />

<glyph glyph-name="folder" unicode="&#xe84e;" d="M893 195c0-150-88-238-237-238h-325c-149 0-237 88-237 238v325c0 148 55 236 204 236h83c30 0 58-14 76-38l38-50c18-24 46-38 76-38h118c150 0 205-76 205-229l-1-206z m-581 52h364" horiz-adv-x="1000" />

<glyph glyph-name="game" unicode="&#xe84f;" d="M369 337v-156m79 78h-159m351 73h-4m80-149h-5m-375 584c0-31 26-56 57-56h44c49 0 88-39 89-86v-29m159-661c-126-2-249-2-369 0-135 0-233 96-233 227v194c0 131 98 227 233 227 121 2 244 2 369 0 134 0 232-96 232-227v-194c0-131-98-227-232-227z" horiz-adv-x="1000" />

<glyph glyph-name="graph" unicode="&#xe850;" d="M720 271c28 0 52-23 47-51-25-163-165-284-333-284-187 0-338 151-338 338 0 153 117 296 248 329 28 7 57-13 57-42 0-197 7-248 44-276 38-28 82-14 275-14z m184 164c2 127-153 331-343 328-15-1-26-13-27-28-5-104 2-239 5-300 1-19 16-34 35-35 63-4 203-8 306 7 13 2 24 14 24 28z" horiz-adv-x="1000" />

<glyph glyph-name="heart" unicode="&#xe851;" d="M120 367c-45 139 7 299 154 346 77 25 162 10 226-38 61 47 149 63 226 38 146-47 199-207 154-346-69-221-380-392-380-392 0 0-308 168-380 392z m547 204c44-15 76-54 80-101" horiz-adv-x="1000" />

<glyph glyph-name="hide" unicode="&#xe852;" d="M407 251c-24 24-39 57-39 93 0 73 59 132 132 132 36 0 69-14 93-38m36-117c-9-54-52-96-105-106m-247-93c-66 52-122 128-162 222 41 95 97 172 164 224 66 52 142 81 221 81 80 0 156-29 222-82m88-92c29-38 54-82 75-131-82-190-226-304-385-304-36 0-71 6-105 17m434 616l-658-657" horiz-adv-x="1000" />

<glyph glyph-name="home" unicode="&#xe853;" d="M382-16v128c0 33 26 59 59 59h120c33 0 60-26 60-59v0-128c0-28 22-50 50-51h80c80 0 145 64 145 144v0 363c-1 31-15 60-40 80l-274 218c-48 38-117 38-165 0l-273-219c-25-19-39-48-40-79v-363c0-80 65-144 145-144h80c29 0 52 23 52 51v0" horiz-adv-x="1000" />

<glyph glyph-name="image-3" unicode="&#xe854;" d="M679 735h-360c-126 0-204-88-204-214v-340c0-126 78-215 204-215h360c126 0 204 89 204 215v340c1 126-78 214-204 214z m-233-251c0-42-34-77-77-77-42 0-77 35-77 77 0 43 35 77 77 77 43 0 77-35 77-77z m438-257c-39 40-113 120-193 120-81 0-127-177-204-177-78 0-148 80-210 29-62-51-121-156-121-156" horiz-adv-x="1000" />

<glyph glyph-name="image" unicode="&#xe855;" d="M884 521v-340c0-126-79-214-205-214h-360c-126 0-204 88-204 214v340c0 126 78 214 204 214h360c126 0 205-88 205-214z m-664-356l64 68c22 23 59 24 82 2 1-1 39-40 39-40 23-23 61-23 85 0 1 1 97 117 97 117 25 30 69 34 99 10 2-2 92-95 92-95m-348 243c0-41-33-74-73-74-41 0-73 33-73 74 0 40 32 73 73 73 40 0 73-33 73-73z" horiz-adv-x="1000" />

<glyph glyph-name="info-square" unicode="&#xe856;" d="M681 735h-362c-125 0-204-89-204-215v-340c0-126 78-215 204-215h362c126 0 204 89 204 215v340c0 126-78 215-204 215z m-181-552v167m0 158h0" horiz-adv-x="1000" />

<glyph glyph-name="location" unicode="&#xe857;" d="M604 413c0 57-46 104-104 104-57 0-104-47-104-104 0-58 47-105 104-105 58 0 104 47 104 105z m-104-438c-50 0-312 213-312 435 0 174 139 315 312 315 173 0 313-141 313-315 0-222-263-435-313-435z" horiz-adv-x="1000" />

<glyph glyph-name="lock" unicode="&#xe858;" d="M684 456v90c0 105-85 189-189 189-105 1-190-84-191-188v-1-90m350-491h-319c-87 0-158 70-158 158v178c0 88 71 158 158 158h319c87 0 158-70 158-158v-178c0-88-71-158-158-158z m-160 293v-92" horiz-adv-x="1000" />

<glyph glyph-name="login" unicode="&#xe859;" d="M659 349h-502m380 122l122-122-122-121m-183 314v39c0 85 69 154 154 154h203c85 0 154-69 154-154v-464c0-85-69-153-154-153h-204c-84 0-153 68-153 153v39" horiz-adv-x="1000" />

<glyph glyph-name="logout" unicode="&#xe85a;" d="M626 542v39c0 85-69 154-154 154h-203c-85 0-153-69-153-154v-464c0-85 68-153 153-153h204c84 0 153 68 153 153v39m283 193h-502m380 122l122-122-122-121" horiz-adv-x="1000" />

<glyph glyph-name="message" unicode="&#xe85b;" d="M746 481l-185-150c-35-28-84-28-119 0l-187 150m450-506c126 0 212 104 212 232v286c0 128-86 232-212 232h-409c-127 0-213-104-213-232v-286c0-128 86-232 213-232h409z" horiz-adv-x="1000" />

<glyph glyph-name="more-circle" unicode="&#xe85c;" d="M500 735c213 0 385-172 385-385 0-213-172-385-385-385-213 0-385 172-385 385 0 213 172 385 385 385z m164-385h1m-168 0h1m-168 0h0" horiz-adv-x="1000" />

<glyph glyph-name="more-square" unicode="&#xe85d;" d="M681 735h-362c-125 0-204-89-204-215v-340c0-126 78-215 204-215h362c126 0 204 89 204 215v340c0 126-78 215-204 215z m-17-385h1m-168 0h1m-168 0h0" horiz-adv-x="1000" />

<glyph glyph-name="notification" unicode="&#xe85e;" d="M500 106c235 0 344 31 354 152 0 120-76 113-76 261 0 116-109 248-278 248-169 0-278-132-278-248 0-148-76-141-76-261 10-122 119-152 354-152z m100-125c-57-63-146-64-203 0" horiz-adv-x="1000" />

<glyph glyph-name="paper-download" unicode="&#xe85f;" d="M614 735h-277c-87 0-158-69-160-155v-448c-2-87 68-160 155-162 2 0 3 0 5 0h333c87 3 156 75 155 162v383l-211 220z m-11 0v-121c0-59 48-107 107-107h115m-340-322v252m-98-153l98-99 98 99" horiz-adv-x="1000" />

<glyph glyph-name="paper-fail" unicode="&#xe860;" d="M614 735h-281c-86 0-156-70-156-155v-452c1-88 72-158 159-158 2 0 4 0 5 0h329c86 1 155 71 155 158v387l-211 220z m-11 0v-121c0-59 48-107 107-107h115m-259-267l-145 144m0-144l145 144" horiz-adv-x="1000" />

<glyph glyph-name="paper-negative" unicode="&#xe861;" d="M614 735h-277c-87 0-158-69-160-155v-452c-1-86 67-156 152-158 3 0 5 0 8 0h333c86 1 155 71 155 158v387l-211 220z m-11 0v-121c0-59 48-107 107-107h115m-229-230h-205" horiz-adv-x="1000" />

<glyph glyph-name="paper-plus" unicode="&#xe862;" d="M614 735h-277c-87 0-158-69-160-155v-452c-1-86 67-156 152-158 3 0 5 0 8 0h333c86 1 155 71 155 158v387l-211 220z m-11 0v-121c0-59 48-107 107-107h115m-229-195h-205m103-102v204" horiz-adv-x="1000" />

<glyph glyph-name="paper-upload" unicode="&#xe863;" d="M614 735h-277c-87 0-158-69-160-155v-448c-2-87 68-160 155-162 2 0 3 0 5 0h333c87 3 156 75 155 162v383l-211 220z m-11 0v-121c0-59 48-107 107-107h115m-340-70v-252m98 154l-98 98-98-98" horiz-adv-x="1000" />

<glyph glyph-name="paper" unicode="&#xe864;" d="M614 735h-277c-87 0-158-69-160-155v-447c-2-88 68-161 156-163 1 0 3 0 4 0h333c87 4 156 76 155 163v382l-211 220z m-11 0v-121c0-59 48-107 107-107h115m-230-297h-225m140 156h-140" horiz-adv-x="1000" />
</font>
</defs>
</svg>
