<svg width="32" height="33" viewBox="0 0 32 33" fill="none" xmlns="http://www.w3.org/2000/svg">
<path fill-rule="evenodd" clip-rule="evenodd" d="M29.3337 16.4424C29.3337 23.8872 23.347 29.9293 16.0003 29.9293L15.6273 29.9241C8.43956 29.7241 2.66699 23.761 2.66699 16.4424C2.66699 9.01108 8.64033 2.95544 16.0003 2.95544C23.347 2.95544 29.3337 9.01108 29.3337 16.4424ZM13.3603 11.0476C12.9737 11.4522 12.9737 12.0861 13.3737 12.4772L17.307 16.4424L13.3737 20.4075C12.9737 20.7987 12.9737 21.446 13.3603 21.8372C13.7603 22.2418 14.387 22.2418 14.7737 21.8372L19.427 17.1572C19.6137 16.9684 19.7203 16.7121 19.7203 16.4424C19.7203 16.1726 19.6137 15.9164 19.427 15.7276L14.7737 11.0476C14.587 10.8453 14.3337 10.7509 14.0803 10.7509C13.8137 10.7509 13.5603 10.8453 13.3603 11.0476Z" fill="#293A3A"/>
</svg>
