<svg width="67" height="67" viewBox="0 0 67 67" fill="none" xmlns="http://www.w3.org/2000/svg">
<path fill-rule="evenodd" clip-rule="evenodd" d="M33.5002 5.58337C48.9102 5.58337 61.4168 18.118 61.4168 33.5L61.4061 34.2811C60.992 49.3304 48.649 61.4167 33.5002 61.4167C18.1181 61.4167 5.5835 48.91 5.5835 33.5C5.5835 18.118 18.1181 5.58337 33.5002 5.58337ZM22.3335 39.0275C23.171 39.8371 24.4831 39.8371 25.2927 38.9996L33.5002 30.7642L41.7077 38.9996C42.5172 39.8371 43.8572 39.8371 44.6668 39.0275C45.5043 38.19 45.5043 36.878 44.6668 36.0684L34.9797 26.3255C34.5889 25.9346 34.0585 25.7113 33.5002 25.7113C32.9418 25.7113 32.4114 25.9346 32.0206 26.3255L22.3335 36.0684C21.9147 36.4592 21.7193 36.9896 21.7193 37.52C21.7193 38.0784 21.9147 38.6088 22.3335 39.0275Z" fill="#116D6E"/>
</svg>
