<svg width="26" height="26" viewBox="0 0 26 26" fill="none" xmlns="http://www.w3.org/2000/svg">
<path d="M12.166 7.89811V3.555C12.166 3.09321 12.5344 2.70837 13.0002 2.70837C13.4173 2.70837 13.7706 3.03174 13.8266 3.44134L13.8344 3.555V7.89811L19.0126 7.89844C21.5909 7.89844 23.7092 10.0098 23.8281 12.643L23.8334 12.8766V18.3359C23.8334 20.9875 21.7888 23.1641 19.2488 23.2863L19.0234 23.2917H6.97675C4.39841 23.2917 2.29035 21.1909 2.17199 18.5481L2.16675 18.3135L2.16675 12.8654C2.16675 10.2138 4.20115 8.02669 6.74058 7.90387L6.96591 7.89844H12.1659V14.8344L10.4326 13.0444C10.1076 12.7088 9.57675 12.7088 9.25175 13.0444C9.08925 13.2122 9.01342 13.436 9.01342 13.6597C9.01342 13.8298 9.06195 14.007 9.16456 14.157L9.25175 14.2638L12.4042 17.5304C12.5559 17.6982 12.7726 17.7877 13.0001 17.7877C13.1806 17.7877 13.3612 17.7256 13.5041 17.6077L13.5851 17.5304L16.7376 14.2638C17.0626 13.9282 17.0626 13.3801 16.7376 13.0444C16.4421 12.7393 15.9766 12.7116 15.6502 12.9612L15.5567 13.0444L13.8342 14.8344V7.89844L12.166 7.89811Z" fill="white"/>
</svg>
