<svg width="390" height="462" viewBox="0 0 390 462" fill="none" xmlns="http://www.w3.org/2000/svg">
<path fill-rule="evenodd" clip-rule="evenodd" d="M307.001 17.0024C307.001 27.4958 297.823 36.0024 286.501 36.0024C275.179 36.0024 266.001 27.4958 266.001 17.0024C266.001 11.9006 260.855 0.00126335 255.753 0.00125117L-268 0C-284.569 -3.95798e-05 -298 13.4314 -298 30L-298 431.002C-298 447.571 -284.568 461.002 -268 461.002L104.501 461.002C113.613 461.002 121.001 453.615 121.001 444.502C121.001 435.39 128.388 428.002 137.501 428.002H251.5C260.613 428.002 268 435.39 268 444.502C268 453.615 275.388 461.002 284.5 461.002L694 461.002C710.569 461.002 724 447.571 724 431.002V30.0023C724 13.4338 710.569 0.00233765 694.001 0.00229808L317.249 0.00139807C312.147 0.00138588 307.001 11.9006 307.001 17.0024Z" fill="#162525"/>
</svg>
