<svg width="45" height="42" viewBox="0 0 45 42" fill="none" xmlns="http://www.w3.org/2000/svg">
<path d="M35.2416 25.7878C34.6782 26.3276 34.4194 27.1084 34.5477 27.8741L36.4813 38.4564C36.6445 39.3533 36.2617 40.261 35.5026 40.7793C34.7587 41.3171 33.7691 41.3816 32.9578 40.9514L23.3245 35.9829C22.9895 35.8065 22.6176 35.7119 22.2369 35.7011H21.6475C21.443 35.7312 21.2429 35.7958 21.0602 35.8947L11.4247 40.8869C10.9484 41.1235 10.409 41.2074 9.88046 41.1235C8.59283 40.8826 7.73369 39.6695 7.94467 38.3897L9.88046 27.8074C10.0088 27.0353 9.74996 26.2502 9.18662 25.7017L1.33251 18.1737C0.675644 17.5435 0.447263 16.5971 0.74742 15.7432C1.03888 14.8915 1.78275 14.2699 2.68104 14.1301L13.491 12.5793C14.3132 12.4954 15.0353 12.0007 15.4051 11.2694L20.1685 1.61201C20.2816 1.39692 20.4273 1.19904 20.6035 1.03127L20.7992 0.880711C20.9014 0.768865 21.0189 0.676378 21.1494 0.601098L21.3865 0.515063L21.7562 0.364502H22.6719C23.4898 0.448386 24.2097 0.932331 24.586 1.65502L29.4124 11.2694C29.7604 11.9727 30.4369 12.461 31.2177 12.5793L42.0277 14.1301C42.9412 14.2591 43.7047 14.8829 44.007 15.7432C44.292 16.6057 44.0462 17.5521 43.3763 18.1737L35.2416 25.7878Z" fill="#203A97"/>
</svg>
