<svg width="22" height="22" viewBox="0 0 22 22" fill="none" xmlns="http://www.w3.org/2000/svg">
<g clip-path="url(#clip0_125_1603)">
<path d="M0.916667 5.50008H21.0833C21.3264 5.50008 21.5596 5.4035 21.7315 5.23159C21.9034 5.05968 22 4.82653 22 4.58341C22 4.3403 21.9034 4.10714 21.7315 3.93523C21.5596 3.76333 21.3264 3.66675 21.0833 3.66675H0.916667C0.673552 3.66675 0.440394 3.76333 0.268485 3.93523C0.0965771 4.10714 0 4.3403 0 4.58341C0 4.82653 0.0965771 5.05968 0.268485 5.23159C0.440394 5.4035 0.673552 5.50008 0.916667 5.50008Z" fill="#374957"/>
<path d="M21.0835 8.25H8.25016C8.00705 8.25 7.77389 8.34658 7.60198 8.51849C7.43007 8.69039 7.3335 8.92355 7.3335 9.16667C7.3335 9.40978 7.43007 9.64294 7.60198 9.81484C7.77389 9.98675 8.00705 10.0833 8.25016 10.0833H21.0835C21.3266 10.0833 21.5598 9.98675 21.7317 9.81484C21.9036 9.64294 22.0002 9.40978 22.0002 9.16667C22.0002 8.92355 21.9036 8.69039 21.7317 8.51849C21.5598 8.34658 21.3266 8.25 21.0835 8.25Z" fill="#374957"/>
<path d="M21.0835 17.4167H8.25016C8.00705 17.4167 7.77389 17.5133 7.60198 17.6852C7.43007 17.8571 7.3335 18.0903 7.3335 18.3334C7.3335 18.5765 7.43007 18.8097 7.60198 18.9816C7.77389 19.1535 8.00705 19.2501 8.25016 19.2501H21.0835C21.3266 19.2501 21.5598 19.1535 21.7317 18.9816C21.9036 18.8097 22.0002 18.5765 22.0002 18.3334C22.0002 18.0903 21.9036 17.8571 21.7317 17.6852C21.5598 17.5133 21.3266 17.4167 21.0835 17.4167Z" fill="#374957"/>
<path d="M21.0833 12.8333H0.916667C0.673552 12.8333 0.440394 12.9298 0.268485 13.1017C0.0965771 13.2736 0 13.5068 0 13.7499C0 13.993 0.0965771 14.2262 0.268485 14.3981C0.440394 14.57 0.673552 14.6666 0.916667 14.6666H21.0833C21.3264 14.6666 21.5596 14.57 21.7315 14.3981C21.9034 14.2262 22 13.993 22 13.7499C22 13.5068 21.9034 13.2736 21.7315 13.1017C21.5596 12.9298 21.3264 12.8333 21.0833 12.8333Z" fill="#374957"/>
</g>
<defs>
<clipPath id="clip0_125_1603">
<rect width="22" height="22" fill="white"/>
</clipPath>
</defs>
</svg>
