<svg width="80" height="80" viewBox="0 0 80 80" fill="none" xmlns="http://www.w3.org/2000/svg">
<g filter="url(#filter0_b_102_2999)">
<path fill-rule="evenodd" clip-rule="evenodd" d="M6.6665 40.0193C6.6665 21.6208 21.6279 6.66667 39.9998 6.66667C58.3718 6.66667 73.3332 21.6208 73.3332 40.0193C73.3332 58.3792 58.3718 73.3333 39.9998 73.3333C21.6279 73.3333 6.6665 58.3792 6.6665 40.0193ZM52.2263 43.3928C52.5803 43.0391 53.0307 42.4924 53.1273 42.3637C53.642 41.6884 53.8995 40.8522 53.8995 40.0193C53.8995 39.0835 53.6099 38.2152 53.0629 37.5076C53.0181 37.4628 52.9303 37.3673 52.8159 37.2428C52.6019 37.0098 52.2947 36.6755 52.0011 36.3821C49.3628 33.552 42.4773 28.9211 38.8737 27.506C38.3267 27.2841 36.9432 26.7985 36.2032 26.7664C35.4953 26.7664 34.8197 26.9272 34.1762 27.2488C33.3718 27.699 32.7283 28.4065 32.3744 29.2426C32.1491 29.8215 31.7952 31.5581 31.7952 31.5903C31.4413 33.4877 31.2482 36.575 31.2482 39.9839C31.2482 43.2353 31.4413 46.1907 31.7309 48.1203C31.7388 48.1282 31.7665 48.2662 31.8095 48.4806C31.9402 49.1324 32.2125 50.4902 32.5031 51.0468C33.2109 52.3975 34.5944 53.2336 36.0745 53.2336H36.2032C37.1684 53.2015 39.1955 52.3653 39.1955 52.3332C42.606 50.9182 49.3306 46.5123 52.0333 43.5858L52.2263 43.3928Z" fill="white" fill-opacity="0.59"/>
</g>
<defs>
<filter id="filter0_b_102_2999" x="-34" y="-34" width="148" height="148" filterUnits="userSpaceOnUse" color-interpolation-filters="sRGB">
<feFlood flood-opacity="0" result="BackgroundImageFix"/>
<feGaussianBlur in="BackgroundImageFix" stdDeviation="17"/>
<feComposite in2="SourceAlpha" operator="in" result="effect1_backgroundBlur_102_2999"/>
<feBlend mode="normal" in="SourceGraphic" in2="effect1_backgroundBlur_102_2999" result="shape"/>
</filter>
</defs>
</svg>
