<svg width="120" height="120" viewBox="0 0 120 120" fill="none" xmlns="http://www.w3.org/2000/svg">
<path fill-rule="evenodd" clip-rule="evenodd" d="M10 60.0289C10 32.4313 32.4421 10 60 10C87.5579 10 110 32.4313 110 60.0289C110 87.5687 87.5579 110 60 110C32.4421 110 10 87.5687 10 60.0289ZM78.3398 65.0892C78.8707 64.5586 79.5463 63.7385 79.6911 63.5456C80.4633 62.5326 80.8494 61.2783 80.8494 60.0289C80.8494 58.6252 80.4151 57.3227 79.5946 56.2615C79.5273 56.1942 79.3957 56.0509 79.2241 55.8641C78.903 55.5147 78.4422 55.0132 78.0019 54.5731C74.0444 50.328 63.7162 43.3816 58.3108 41.259C57.4903 40.9262 55.4151 40.1978 54.305 40.1495C53.2432 40.1495 52.2297 40.3907 51.2645 40.8731C50.0579 41.5485 49.0927 42.6097 48.5618 43.864C48.2239 44.7323 47.6931 47.3372 47.6931 47.3854C47.1622 50.2315 46.8726 54.8625 46.8726 59.9759C46.8726 64.8529 47.1622 69.2861 47.5965 72.1804C47.6085 72.1924 47.65 72.3994 47.7145 72.7209C47.9106 73.6986 48.319 75.7353 48.7548 76.5702C49.8166 78.5962 51.8919 79.8505 54.112 79.8505H54.305C55.7529 79.8022 58.7934 78.548 58.7934 78.4998C63.9093 76.3772 73.9961 69.7685 78.0502 65.3787L78.3398 65.0892Z" fill="#D8D8D8"/>
</svg>
