<svg width="41" height="41" viewBox="0 0 41 41" fill="none" xmlns="http://www.w3.org/2000/svg">
<circle cx="20.0509" cy="20.902" r="20.0275" fill="#07842A"/>
<path d="M12.1541 21.175C11.5312 21.5018 11.557 21.9804 12.2101 22.2388L14.145 23.0044C14.7986 23.2639 15.7876 23.1223 16.3416 22.69L24.744 16.0637C25.2963 15.6292 25.3555 15.6933 24.8759 16.2069L18.2334 23.3167C17.7521 23.8287 17.8942 24.4575 18.55 24.7111L18.7766 24.7993C19.4324 25.0529 20.501 25.4788 21.1525 25.7436L23.2984 26.6174C23.9504 26.8823 24.647 26.5701 24.8322 25.8917L28.1029 13.8698C28.2875 13.1915 27.929 12.9035 27.3061 13.2297L12.1541 21.175Z" fill="white"/>
<path d="M17.4665 29.0455C17.4282 29.1602 18.7898 27.074 18.7898 27.074C19.1747 26.4861 18.9561 25.7846 18.3058 25.5186L16.8209 24.9108C16.1706 24.6449 15.8589 24.9571 16.1281 25.6069C16.1281 25.6069 17.5058 28.9276 17.4665 29.0455Z" fill="white"/>
</svg>
