<svg width="42" height="42" viewBox="0 0 42 42" fill="none" xmlns="http://www.w3.org/2000/svg">
<path fill-rule="evenodd" clip-rule="evenodd" d="M14.5197 20.9479C14.5197 24.5285 17.4508 27.4417 21.0695 27.4417C24.6719 27.4417 27.603 24.5285 27.603 20.9479C27.603 17.351 24.6719 14.4378 21.0695 14.4378C17.4508 14.4378 14.5197 17.351 14.5197 20.9479ZM30.6978 10.9548C33.5633 13.1683 36.0032 16.4071 37.7552 20.4596C37.8862 20.7689 37.8862 21.1269 37.7552 21.4199C34.2511 29.525 28.0124 34.375 21.0696 34.375H21.0532C14.1268 34.375 7.88805 29.525 4.38389 21.4199C4.2529 21.1269 4.2529 20.7689 4.38389 20.4596C7.88805 12.3545 14.1268 7.52075 21.0532 7.52075H21.0696C24.541 7.52075 27.8323 8.72512 30.6978 10.9548ZM21.0715 24.9969C23.3148 24.9969 25.1488 23.174 25.1488 20.9443C25.1488 18.6983 23.3148 16.8755 21.0715 16.8755C20.875 16.8755 20.6785 16.8917 20.4984 16.9243C20.4329 18.7146 18.9592 20.1468 17.1416 20.1468H17.0598C17.0106 20.4072 16.9779 20.6676 16.9779 20.9443C16.9779 23.174 18.8118 24.9969 21.0715 24.9969Z" fill="#116D6E"/>
</svg>
